<svg xmlns="http://www.w3.org/2000/svg" viewBox="0 0 598.26 505.04"><defs><style>.cls-1{isolation:isolate;}.cls-2{fill:#333;}.cls-3{fill:#7a7f7e;}.cls-4{fill:#b0b5b3;}.cls-5{fill:#d7d8d7;}.cls-6{fill:#3e414a;}.cls-7{fill:#979797;}.cls-8{fill:#454d5a;}.cls-25,.cls-9{fill:#282f39;}.cls-10{fill:#214252;}.cls-11{fill:#e54141;}.cls-11,.cls-13,.cls-14,.cls-17{stroke:#c93131;}.cls-11,.cls-13,.cls-14,.cls-17,.cls-24,.cls-34,.cls-35,.cls-36{stroke-miterlimit:10;}.cls-12{fill:#c5daf0;}.cls-13{fill:#ce3838;}.cls-14{fill:#c93131;}.cls-15{fill:#dbecff;}.cls-16,.cls-34{fill:#fff;}.cls-17{fill:#d84141;}.cls-18{fill:#1c1c1c;}.cls-19{fill:#fca30b;}.cls-20{fill:#f6c96b;}.cls-21{fill:#f6fffc;}.cls-22{fill:#f7ffe7;}.cls-23{fill:#f0fffd;}.cls-24{fill:#e5e5e5;}.cls-24,.cls-34,.cls-35,.cls-36{stroke:#bcbcbc;}.cls-25{mix-blend-mode:soft-light;}.cls-26{fill:#e4eae8;}.cls-27{fill:#73645b;}.cls-28{fill:#544942;}.cls-29{fill:#473e38;}.cls-30{fill:#413833;}.cls-31{fill:#fd8a6a;}.cls-32{fill:#8fad28;}.cls-33{fill:#e3ab35;}.cls-35{fill:#f4f4f4;}.cls-36{fill:#f5fffd;}</style></defs><title>CarritoRojo</title><g class="cls-1"><g id="Layer_1" data-name="Layer 1"><path class="cls-2" d="M425.4,548.16c13.45-6.77,126.75-70.58,141.1-78.26,0-.1-1.33-2.92-1.36-3a2.12,2.12,0,0,0-.08-.31l-.3-.91-.09-.26a1.07,1.07,0,0,0-.06-.2c-.09-.24-.18-.49-.27-.72a1.25,1.25,0,0,0-.11-.27c-.09-.26-.2-.51-.31-.74a0,0,0,0,0,0,0c-.12-.26-.24-.51-.36-.74L421.33,510.42h0v0l1.84-.61,140.38-47.11-.39-.6s0,0,0-.06-.23-.33-.37-.49a1.32,1.32,0,0,0-.16-.22l0,0c-.1-.12-.2-.24-.3-.38l-.29-.33c-.13-.17-.29-.34-.44-.5s-.18-.21-.29-.32c-.24-.27-.53-.57-.82-.86a2.54,2.54,0,0,0-.24-.23c-.22-.23-.44-.46-.68-.69l-.41-.4c-.2-.19-.37-.38-.59-.57s-.32-.31-.5-.47-.37-.36-.56-.53-.39-.36-.58-.53l-.54-.5-.65-.58c-.16-.14-.33-.29-.47-.43-.63-.55-1.27-1.11-1.94-1.68a4.3,4.3,0,0,0-.34-.29c-.64-.56-1.31-1.13-2-1.7l-.19-.16-2-1.66-.27-.22-2.06-1.68-.52-.42-.59-.49-.62-.5c-.21-.16-.41-.33-.61-.49l-.55-.43-1.27-1-.43-.33c-.23-.19-.46-.38-.72-.56l-.42-.35c-.21-.17-.44-.35-.68-.51l-.4-.34-.66-.51a3.71,3.71,0,0,1-.29-.24c-.45-.32-.84-.64-1.25-1l-.36-.28-.51-.4c-.14-.09-.26-.21-.42-.32l-.42-.33c-.17-.13-.33-.25-.49-.37l-.32-.23-2.28-1.74-.75-.57L519.51,408c7.21,3.05,11.4,4.52,11.69,3.94s-4.84-4-14.11-9.28l-2.49-5.51-12-26.48c28.88,9.13,47.61,14.52,47.84,13.18s-18.88-9-48.42-20l-.58-.49-.07-.07c-.53-.43-1.08-.86-1.65-1.28a.26.26,0,0,0-.1-.08c-.73-.56-1.49-1.12-2.22-1.63l-.07,0c-.5-.36-1-.7-1.48-1h0l-1.38-.94-.06,0L494,358l-.1-.07-.39-.25-.07,0-.37-.25,0,0-.35-.22s0,0,0,0l-.27-.19s0,0,0,0l-.19-.12-.06,0a.23.23,0,0,0-.09-.07l-.19-.12-45.65-23-1.06-7.77c-.37-2.7-3.44-5.72-9-8.31l-26.35-12.21c-8.52-3.95-20.33-5.74-29.45-4.87l-1-.51-3-22.27c-.37-2.71-3.45-5.72-9-8.32L340.89,257.1c-10.82-5-27-6.63-36.14-3.6L294,257c-34.67-17.4-68.08-34.15-94.63-47.4l-2.64-1.32L196,208c-.55-.28-1.09-.55-1.63-.83s-.87-.42-1.3-.63l-1.28-.64-1.08-.53-4.85-2.42-.47-.23-1.57-.79c-.41-.2-.8-.39-1.18-.59l-1.22-.6c-.28-.14-.55-.28-.83-.41l-1.47-.74-1.68-.84-1.06-.53c-.24-.11-.48-.23-.71-.35l-1.62-.8-.41-.21L172,196a4.39,4.39,0,0,0-.41-.19l-3.85-1.92c-.12,0-.22-.12-.37-.17L166,193a3.82,3.82,0,0,0-.41-.19c-.46-.24-.93-.47-1.4-.7a2.47,2.47,0,0,1-.34-.18l-1.62-.79h0c-1.07-.54-2.11-1.05-3.1-1.53l-.24-.13-1.2-.58-.22-.11-2.57-1.26a.3.3,0,0,0-.1,0l-1-.51-.18-.09-.95-.45-.08-.05-1.86-.89h0l-.51-.24s-.12,0-.16-.08l-.22-.1-.42-.2-.22-.11-.36-.16a1.44,1.44,0,0,1-.16-.09l-.38-.16-.06,0-.06,0-.34-.15-.32-.13a2.11,2.11,0,0,0-.53,0h-.06a2.27,2.27,0,0,0-.45.09h0l-83.48,28-16.51-8.24s-10-1.41-9.25,4.12l1.66,12.21L4.35,231.76l-.18.07c-2.43.8-3.12,6.12-3.17,6.43l1.66.84,10.11,72.46.27,2-.55-.26,5,37.28,13.13,6.56,2.86,4.8,48.73,24.33,14.78-5a11.23,11.23,0,0,0-2,6.81c-.11,11,10.33,26.22,23.32,33.95,5.83,3.46,11.19,4.83,15.35,4.28a10.23,10.23,0,0,0,2.47-.63l13.09-3.3.63-.16a8.87,8.87,0,0,0,4-2.35l1.3,3.14L341.4,516l3.9,1.94,8.85-3a14,14,0,0,0-.27,2.7c-.12,11,10.33,26.23,23.31,34,5.83,3.46,11.19,4.82,15.35,4.27a9.8,9.8,0,0,0,2.47-.63L408.09,552l.62-.17a8.5,8.5,0,0,0,5.79-5.08,12.49,12.49,0,0,0,.93-4.86c0-.06,0-.1,0-.15ZM14.33,311.72a8.08,8.08,0,0,1-1.12-1.26.79.79,0,0,0-.09-.12,10.59,10.59,0,0,1-.63-1.05l-.49-3.6.91,3.46.07.21,0,.2a.7.7,0,0,1,0,.07c0,.1,0,.19.08.31a2.47,2.47,0,0,0,.14.32,3.11,3.11,0,0,0,.2.38,5.81,5.81,0,0,0,.93,1.11Zm217.33-31.9,9.63,3.3c3.13,1.49,6.44,3.12,9.93,4.85l-13.53,4.46-18-8.73Zm-17.4,5.48,23.17,7.22-2.57.85c-3.35,1.1-5.29,2.67-5.88,4.46h0l.18,1.3c-10.07-3-17.33-5.11-22.21-6.46l-.64-4.72Zm-7,55.62c-4.25-1.87-5.76-3.93-4.71-5.71l2.23-3.81,1.06-1.81c2.64-1.23,5.7-3.05,5.7-3.05l-.74-5.41,4.73-8.08L217,310.7h0c1.52-1.15,4.3-2.11,8.21-2.72l5.1-.8,3.82,28c.37,2.71,3.44,5.71,9,8.32l20.32,9.42-1.88.3c-.54.09-1.09.15-1.66.22a69.9,69.9,0,0,1-10.5.4A79.91,79.91,0,0,1,234.56,352a41.12,41.12,0,0,1-7.27-2.29Zm78.55,83.19c-1,.72-3.61-1.27-3.61-1.27S266.72,407.39,252.57,393c9,13.62,17.43,26.74,17.43,26.74s1.78,3.26.51,3.73-3.28-1.81-3.28-1.81-13-20.65-23.27-37.43c-8.27-8.47-14.48-15-14.09-15.25s4.46,3.56,10.33,9.05c-5.12-8.49-8.79-14.85-8.34-15s7.29,9.69,14.93,21.18c15.92,15.13,37.31,36,37.31,36S286.84,423.38,285.86,424.1Zm79-56.25c-.54.09-1.09.16-1.65.23a79.47,79.47,0,0,1-25.35-1.42,40.84,40.84,0,0,1-7.27-2.29l-17.29-7.61,18.88-6.23c3.34-1.1,5.27-2.68,5.85-4.46l-.5-3.63-1.74-12.76a50,50,0,0,0,7.32-.3l3.12,22.87c.37,2.7,3.44,5.71,9,8.31l14.18,6.58Zm85-7.5c5.51,1.85,10.64,3.59,15.28,5.19,9.45,3.26,17,6,21.92,7.93l1.67.67c3.54,1.45,5.33,2.4,5,2.72s-3.56-.19-8.83-1.44l-2.16-.52c-6.22-1.53-14.87-3.88-25.25-6.8l-9.05-2.57a5.23,5.23,0,0,0,1.81-2.4Zm-33.79,16.51.28-.06c.5-.13,1-.25,1.44-.42l6.78-2.24,5.85,3.05c6.87,3.61,12.8,6.79,17.49,9.42l1.37.77c2.55,1.44,4.69,2.7,6.36,3.74,3.12,1.94,4.66,3.17,4.18,3.47s-3.33-.52-7.86-2.26c-2.23-.85-4.88-1.92-7.92-3.2l-1.64-.68c-5.54-2.34-12.22-5.27-19.77-8.66Z" transform="translate(-1 -51)"/><path class="cls-2" d="M420.33,509c0-.07-.11-.13-.15-.21l.13.15S420.33,509,420.33,509Z" transform="translate(-1 -51)"/><path class="cls-2" d="M363.27,415.3v0s0,0,0-.08a.6.6,0,0,1-.05-.11s0,.05.05.09a.13.13,0,0,1,0,0S363.26,415.3,363.27,415.3Z" transform="translate(-1 -51)"/><path class="cls-2" d="M363.34,415.82a.19.19,0,0,0,0-.11s0,0,0,0,0,0,0,.05h0v0s0,0,0,.05h0a0,0,0,0,1,0,0,.07.07,0,0,0,0,0s0,0,0,.05A.46.46,0,0,0,363.34,415.82Z" transform="translate(-1 -51)"/><path class="cls-2" d="M363.3,416a.07.07,0,0,0,0,0l0,0A0,0,0,0,0,363.3,416Z" transform="translate(-1 -51)"/><path class="cls-2" d="M357,425l.2,0H357Z" transform="translate(-1 -51)"/><path class="cls-2" d="M359,425.55v0l-.2-.09A.6.6,0,0,0,359,425.55Z" transform="translate(-1 -51)"/><path class="cls-2" d="M296.94,451.22a.84.84,0,0,1-.1-.16s.08,0,.08,0Z" transform="translate(-1 -51)"/><path class="cls-2" d="M295.36,449.08a4.69,4.69,0,0,1,.45.47.75.75,0,0,1,.14.18Z" transform="translate(-1 -51)"/><path class="cls-2" d="M362.45,463.7h0s0,0,0,0S362.43,463.69,362.45,463.7Z" transform="translate(-1 -51)"/><path class="cls-2" d="M363.51,464.43a.57.57,0,0,0,.17.11.94.94,0,0,1-.17-.1l-.2-.11Z" transform="translate(-1 -51)"/><path class="cls-2" d="M421.86,511.55l-.17-.36s0,0,0,0S421.8,511.42,421.86,511.55Z" transform="translate(-1 -51)"/><path class="cls-2" d="M7.94,233c.3.14.63.3,1,.47l-1.19-.57Z" transform="translate(-1 -51)"/><path class="cls-2" d="M4.68,231.73h.17l.13,0a1.3,1.3,0,0,0-.34,0Z" transform="translate(-1 -51)"/><path class="cls-2" d="M447.92,386.61c-4.69-2.63-10.62-5.81-17.49-9.42l-5.85-3.05-6.78,2.24c-.46.16-.94.29-1.44.42l-.28.06,6.56,3c7.55,3.38,14.23,6.31,19.77,8.66l1.64.68c3,1.27,5.69,2.34,7.92,3.2,4.53,1.73,7.34,2.58,7.86,2.26s-1.06-1.53-4.18-3.47c-1.67-1-3.8-2.3-6.36-3.74Z" transform="translate(-1 -51)"/><path class="cls-2" d="M465.15,365.54c-4.65-1.6-9.78-3.34-15.28-5.19l.38,2.79a5.23,5.23,0,0,1-1.81,2.4l9.05,2.57c10.38,2.93,19,5.27,25.25,6.8l2.16.52c5.26,1.25,8.43,1.8,8.83,1.44s-1.45-1.27-5-2.72l-1.67-.67C482.11,371.5,474.6,368.8,465.15,365.54Z" transform="translate(-1 -51)"/><path class="cls-2" d="M207.3,340.91l20,8.8a41.12,41.12,0,0,0,7.27,2.29,79.91,79.91,0,0,0,14.84,1.82,69.9,69.9,0,0,0,10.5-.4c.57-.07,1.12-.13,1.66-.22l1.88-.3-20.32-9.42c-5.6-2.6-8.67-5.61-9-8.32l-3.82-28-5.1.8c-3.91.61-6.68,1.57-8.21,2.72h0L215.57,313l-4.73,8.08.74,5.41s-3.06,1.82-5.7,3.05l-1.06,1.81-2.23,3.81C201.55,337,203.06,339,207.3,340.91Z" transform="translate(-1 -51)"/><path class="cls-2" d="M206.31,288l.64,4.72c4.88,1.36,12.14,3.44,22.21,6.46l-.18-1.3h0c.58-1.79,2.53-3.36,5.88-4.46l2.57-.85-23.17-7.22Z" transform="translate(-1 -51)"/><path class="cls-2" d="M335.84,329.68l1.74,12.76.5,3.63c-.58,1.78-2.51,3.36-5.85,4.46l-18.88,6.23,17.29,7.61a40.84,40.84,0,0,0,7.27,2.29,79.47,79.47,0,0,0,25.35,1.42c.57-.07,1.11-.14,1.65-.23l4.59-.72-14.18-6.58c-5.6-2.6-8.67-5.61-9-8.31l-3.12-22.87A50,50,0,0,1,335.84,329.68Z" transform="translate(-1 -51)"/><path class="cls-2" d="M237.7,292.44,251.23,288c-3.49-1.73-6.79-3.36-9.93-4.85l-9.63-3.3-12,3.89Z" transform="translate(-1 -51)"/><path class="cls-2" d="M246.8,384.31c-7.64-11.49-14.36-21.32-14.93-21.18s3.22,6.47,8.34,15c-5.87-5.49-10-9.22-10.33-9.05s5.82,6.77,14.09,15.25c10.25,16.78,23.27,37.43,23.27,37.43s2,2.29,3.28,1.81-.51-3.73-.51-3.73-8.47-13.13-17.43-26.74c14.15,14.34,29.68,29.78,29.68,29.78s2.62,2,3.61,1.27-1.75-3.75-1.75-3.75S262.71,399.44,246.8,384.31Z" transform="translate(-1 -51)"/><path class="cls-2" d="M455.65,391.12c-1.67-1-3.8-2.3-6.36-3.74l-1.37-.77c-4.69-2.63-10.62-5.81-17.49-9.42l-5.85-3.05-6.78,2.24c-.46.16-.94.29-1.44.42l-.28.06,6.56,3c7.55,3.38,14.23,6.31,19.77,8.66l1.64.68c3,1.27,5.69,2.34,7.92,3.2,4.53,1.73,7.34,2.58,7.86,2.26S458.77,393.07,455.65,391.12Z" transform="translate(-1 -51)"/><path class="cls-2" d="M488.75,374.14l-1.67-.67c-5-2-12.47-4.67-21.92-7.93-4.65-1.6-9.78-3.34-15.28-5.19l.38,2.79a5.23,5.23,0,0,1-1.81,2.4l9.05,2.57c10.38,2.93,19,5.27,25.25,6.8l2.16.52c5.26,1.25,8.43,1.8,8.83,1.44S492.29,375.6,488.75,374.14Z" transform="translate(-1 -51)"/><path class="cls-2" d="M234.56,352a79.91,79.91,0,0,0,14.84,1.82,69.9,69.9,0,0,0,10.5-.4c.57-.07,1.12-.13,1.66-.22l1.88-.3-20.32-9.42c-5.6-2.6-8.67-5.61-9-8.32l-3.82-28-5.1.8c-3.91.61-6.68,1.57-8.21,2.72h0L215.57,313l-4.73,8.08.74,5.41s-3.06,1.82-5.7,3.05l-1.06,1.81-2.23,3.81c-1,1.78.46,3.84,4.71,5.71l20,8.8A41.12,41.12,0,0,0,234.56,352Z" transform="translate(-1 -51)"/><path class="cls-2" d="M229,297.84h0c.58-1.79,2.53-3.36,5.88-4.46l2.57-.85-23.17-7.22-8,2.67.64,4.72c4.88,1.36,12.14,3.44,22.21,6.46Z" transform="translate(-1 -51)"/><path class="cls-2" d="M346.27,352.25l-3.12-22.87a50,50,0,0,1-7.32.3l1.74,12.76.5,3.63c-.58,1.78-2.51,3.36-5.85,4.46l-18.88,6.23,17.29,7.61a40.84,40.84,0,0,0,7.27,2.29,79.47,79.47,0,0,0,25.35,1.42c.57-.07,1.11-.14,1.65-.23l4.59-.72-14.18-6.58C349.71,358,346.64,354.95,346.27,352.25Z" transform="translate(-1 -51)"/><path class="cls-2" d="M251.23,288c-3.49-1.73-6.79-3.36-9.93-4.85l-9.63-3.3-12,3.89,18,8.73Z" transform="translate(-1 -51)"/><g id="_Group_" data-name="&lt;Group&gt;"><path class="cls-3" d="M138.55,363.12a30.71,30.71,0,0,1-1.25-6.33h.11c.83,0,2.85.13,4.15,0a17.47,17.47,0,0,0,.68,5A32.88,32.88,0,0,1,138.55,363.12Z" transform="translate(-1 -51)"/><path class="cls-4" d="M140.33,367.63a32.91,32.91,0,0,1-1.78-4.52,32.88,32.88,0,0,0,3.69-1.29,19.66,19.66,0,0,0,1.62,4.17C142.87,366.45,141.06,367.32,140.33,367.63Z" transform="translate(-1 -51)"/><path class="cls-5" d="M149,369.48a4.73,4.73,0,0,0,4.24,1.05,2.85,2.85,0,0,0,.74-.35,4,4,0,0,0,1.46-1.74,6.86,6.86,0,0,0,.62-2.33c.47-4.36-2-9.92-5.38-12.43a6.46,6.46,0,0,0-2.12-1,3.57,3.57,0,0,0-2.4.1l-.23.11,0,0c-1.21.64-2.06,2.08-2.28,4.19C143.14,361.41,145.55,367,149,369.48Zm-7.43-12.69a10.38,10.38,0,0,1,.07-1.19,9.87,9.87,0,0,1,.53-2.36,5.46,5.46,0,0,1,2.5-3.18h0l.05,0,.26-.13a4.43,4.43,0,0,1,2.27-.3,4.76,4.76,0,0,1,.88.18,7.66,7.66,0,0,1,2.18,1,7.37,7.37,0,0,1,.62.41,15.68,15.68,0,0,1,3.89,4.28,20.46,20.46,0,0,1,1.95,3.9,19.74,19.74,0,0,1,1.15,4.35,14.71,14.71,0,0,1,.11,3.89,3.49,3.49,0,0,1-.06.42,9.09,9.09,0,0,1-.74,2.66,3.86,3.86,0,0,1-.34.6,4.8,4.8,0,0,1-1.59,1.69l-.14.08a6.37,6.37,0,0,1-.85.39,4.92,4.92,0,0,1-2.73,0,8.7,8.7,0,0,1-2.88-1.42c-.12-.09-.26-.19-.39-.3a14.73,14.73,0,0,1-2.73-2.86,16.64,16.64,0,0,1-1.76-2.85h0a19.66,19.66,0,0,1-1.62-4.17A17.47,17.47,0,0,1,141.56,356.79Z" transform="translate(-1 -51)"/><path class="cls-5" d="M151.74,343.54c7.85,5.71,13.34,18.41,12.28,28.37a17,17,0,0,1-1.39,5.31,9.22,9.22,0,0,1-3.33,4,7.33,7.33,0,0,1-1.69.79c-2.77.92-6.18.18-9.7-2.38-7.85-5.71-13.33-18.4-12.28-28.36.51-4.82,2.47-8.1,5.23-9.57l.07,0,.55-.25a8.16,8.16,0,0,1,5.44-.24A14.63,14.63,0,0,1,151.74,343.54Zm-4.62.07a8,8,0,0,0-2.84-.29,6.29,6.29,0,0,0-1.86.48l-.47.24-.05,0a6.86,6.86,0,0,0-2.08,1.75,11.49,11.49,0,0,0-2.27,5.31c-.08.44-.14.9-.2,1.37a23.84,23.84,0,0,0,0,4.29,30.71,30.71,0,0,0,1.25,6.33,32.91,32.91,0,0,0,1.78,4.52v0a30,30,0,0,0,2.94,5,22.72,22.72,0,0,0,3.45,3.82,13.81,13.81,0,0,0,1.2,1,13.33,13.33,0,0,0,3.25,1.81,7.62,7.62,0,0,0,5.14.29,7.89,7.89,0,0,0,1.46-.72l.33-.23a8.4,8.4,0,0,0,2.56-3.26,12.82,12.82,0,0,0,.8-2.33,14.38,14.38,0,0,0,.41-2.33c.08-.69.11-1.41.13-2.13a27.27,27.27,0,0,0-.57-5.46,33.1,33.1,0,0,0-4.18-10.58,23.9,23.9,0,0,0-6-6.75A12.14,12.14,0,0,0,147.12,343.62Z" transform="translate(-1 -51)"/><path class="cls-3" d="M144.7,350h0a5.46,5.46,0,0,0-2.5,3.18c-1.56-.43-3.88-1.27-4.51-2.09h-.11a11.49,11.49,0,0,1,2.27-5.31,14.11,14.11,0,0,1,4.94,4.2Z" transform="translate(-1 -51)"/><path class="cls-4" d="M144.75,350a14.11,14.11,0,0,0-4.94-4.2,6.86,6.86,0,0,1,2.08-1.75l.05,0,.47-.24a6.29,6.29,0,0,1,1.86-.48,19,19,0,0,1,3,6.22v0a4.43,4.43,0,0,0-2.27.3Z" transform="translate(-1 -51)"/><path class="cls-4" d="M148.35,371.71l-.16.21c-.11,1.57-1,3.06-1.46,4.51a22.72,22.72,0,0,1-3.45-3.82,44.2,44.2,0,0,0,2.36-3.77A14.73,14.73,0,0,0,148.35,371.71Z" transform="translate(-1 -51)"/><path class="cls-3" d="M143.27,372.61a30,30,0,0,1-2.94-5v0c.72-.32,2.54-1.18,3.53-1.64h0a16.64,16.64,0,0,0,1.76,2.85A44.2,44.2,0,0,1,143.27,372.61Z" transform="translate(-1 -51)"/><path class="cls-4" d="M137.64,351.15c.63.83,3,1.67,4.51,2.09a9.87,9.87,0,0,0-.53,2.36,10.38,10.38,0,0,0-.07,1.19c-1.3.12-3.32,0-4.15,0h-.11a23.84,23.84,0,0,1,0-4.29c.06-.46.11-.93.2-1.37Z" transform="translate(-1 -51)"/><path class="cls-6" d="M152.31,336.83c10.66,7.89,18.14,25.45,16.67,39.24a23.29,23.29,0,0,1-1.91,7.35,13.07,13.07,0,0,1-4.54,5.5,11.55,11.55,0,0,1-2.31,1.12c-3.77,1.23-8.41.25-13.2-3.29-10.67-7.89-18.14-25.45-16.67-39.25.71-6.68,3.37-11.23,7.16-13.25l.08-.06.73-.35a11,11,0,0,1,7.43-.32A19.13,19.13,0,0,1,152.31,336.83ZM164,371.92c1.06-10-4.43-22.67-12.28-28.37a14.63,14.63,0,0,0-4.83-2.39,8.16,8.16,0,0,0-5.44.24l-.55.25-.07,0c-2.76,1.47-4.72,4.75-5.23,9.57-1.05,10,4.43,22.65,12.28,28.36,3.53,2.56,6.94,3.3,9.7,2.38a7.33,7.33,0,0,0,1.69-.79,9.22,9.22,0,0,0,3.33-4A17,17,0,0,0,164,371.92Z" transform="translate(-1 -51)"/><path class="cls-3" d="M161.43,363a27.27,27.27,0,0,1,.57,5.46,26.31,26.31,0,0,1-4-.52,3.49,3.49,0,0,0,.06-.42,14.71,14.71,0,0,0-.11-3.89A7.74,7.74,0,0,0,161.43,363Z" transform="translate(-1 -51)"/><path class="cls-4" d="M159.72,357.38a32.27,32.27,0,0,1,1.71,5.66,7.74,7.74,0,0,1-3.48.64,19.74,19.74,0,0,0-1.15-4.35A25.85,25.85,0,0,0,159.72,357.38Z" transform="translate(-1 -51)"/><path class="cls-3" d="M157.95,378.33a31.31,31.31,0,0,0-2.75-5.32l.14-.08a4.8,4.8,0,0,0,1.59-1.69,12.27,12.27,0,0,0,4.47,1.71h.07a12.82,12.82,0,0,1-.8,2.33,8.4,8.4,0,0,1-2.56,3.26Z" transform="translate(-1 -51)"/><path class="cls-3" d="M157.13,352.52l.11-.07a32.17,32.17,0,0,1,2.47,4.92,25.85,25.85,0,0,1-2.93,1.94,20.46,20.46,0,0,0-1.95-3.9C154.73,354.52,156.47,353.42,157.13,352.52Z" transform="translate(-1 -51)"/><path class="cls-4" d="M157.26,370.63A9.09,9.09,0,0,0,158,368a26.31,26.31,0,0,0,4,.52c0,.72-.05,1.44-.13,2.13a14.38,14.38,0,0,1-.41,2.33h-.07a12.27,12.27,0,0,1-4.47-1.71A3.86,3.86,0,0,0,157.26,370.63Z" transform="translate(-1 -51)"/><path class="cls-4" d="M151.62,373.43a4.92,4.92,0,0,0,2.73,0,6.37,6.37,0,0,0,.85-.39,31.31,31.31,0,0,1,2.75,5.32l.15.22-.33.23a7.89,7.89,0,0,1-1.46.72,7.62,7.62,0,0,1-5.14-.29A37,37,0,0,1,151.62,373.43Z" transform="translate(-1 -51)"/><path class="cls-4" d="M157.13,352.52c-.67.89-2.4,2-2.29,2.9a15.68,15.68,0,0,0-3.89-4.28,7.37,7.37,0,0,0-.62-.41,43.53,43.53,0,0,1,.95-5,23.9,23.9,0,0,1,6,6.75Z" transform="translate(-1 -51)"/><path class="cls-4" d="M147.1,356.14h0l.15-.07a2.38,2.38,0,0,1,1.55-.07,4.11,4.11,0,0,1,1.38.68,9.74,9.74,0,0,1,3.51,8.1,5,5,0,0,1-.4,1.51,2.84,2.84,0,0,1-.95,1.13,3.87,3.87,0,0,1-.48.24,3.16,3.16,0,0,1-2.77-.69,9.72,9.72,0,0,1-3.51-8.1A3.25,3.25,0,0,1,147.1,356.14Z" transform="translate(-1 -51)"/><path class="cls-3" d="M146.73,376.43c.46-1.45,1.35-2.95,1.46-4.51l.16-.21c.13.11.26.21.39.3a8.7,8.7,0,0,0,2.88,1.42,37,37,0,0,0-.45,5.78,13.33,13.33,0,0,1-3.25-1.81A13.81,13.81,0,0,1,146.73,376.43Z" transform="translate(-1 -51)"/><path class="cls-3" d="M147.28,349.55a19,19,0,0,0-3-6.22,8,8,0,0,1,2.84.29,12.14,12.14,0,0,1,4.17,2.09,43.53,43.53,0,0,0-.95,5,7.66,7.66,0,0,0-2.18-1,4.76,4.76,0,0,0-.88-.18Z" transform="translate(-1 -51)"/><path class="cls-7" d="M148.82,356a2.38,2.38,0,0,0-1.55.07l-.15.07h0a3.25,3.25,0,0,0-1.49,2.72,9.72,9.72,0,0,0,3.51,8.1,3.16,3.16,0,0,0,2.77.69,3.87,3.87,0,0,0,.48-.24,2.84,2.84,0,0,0,.95-1.13,5,5,0,0,0,.4-1.51,9.74,9.74,0,0,0-3.51-8.1A4.11,4.11,0,0,0,148.82,356Zm.17,13.49c-3.44-2.48-5.85-8.06-5.38-12.43.22-2.12,1.07-3.55,2.28-4.19l0,0,.23-.11a3.57,3.57,0,0,1,2.4-.1,6.46,6.46,0,0,1,2.12,1c3.43,2.51,5.85,8.07,5.38,12.43a6.86,6.86,0,0,1-.62,2.33,4,4,0,0,1-1.46,1.74,2.85,2.85,0,0,1-.74.35A4.73,4.73,0,0,1,149,369.48Z" transform="translate(-1 -51)"/><path class="cls-8" d="M145.29,329.77a12.7,12.7,0,0,0-8.46.38l13.5-6.46a11.29,11.29,0,0,1,2.9-1.39h0c4.31-1.34,9.54-.21,15,3.75,12.21,8.89,20.77,28.67,19.12,44.16-.8,7.57-3.9,12.72-8.26,15l-.67.32-13.85,6.6a14.35,14.35,0,0,0,5.2-6.16,26.1,26.1,0,0,0,2.18-8.26c1.65-15.51-6.91-35.29-19.12-44.17A22.1,22.1,0,0,0,145.29,329.77Z" transform="translate(-1 -51)"/><path class="cls-9" d="M146.84,389.66c-12.21-8.9-20.77-28.65-19.12-44.17.79-7.5,3.82-12.62,8.13-14.91l.11-.06.85-.38a12.7,12.7,0,0,1,8.46-.38,22.1,22.1,0,0,1,7.53,3.75c12.21,8.88,20.77,28.66,19.12,44.17a26.1,26.1,0,0,1-2.18,8.26,14.35,14.35,0,0,1-5.2,6.16,10.57,10.57,0,0,1-2.62,1.25C157.62,394.76,152.32,393.65,146.84,389.66Zm-16.5-42.15c-1.47,13.8,6,31.36,16.67,39.25,4.79,3.54,9.43,4.51,13.2,3.29a11.55,11.55,0,0,0,2.31-1.12,13.07,13.07,0,0,0,4.54-5.5,23.29,23.29,0,0,0,1.91-7.35c1.47-13.79-6-31.35-16.67-39.24a19.13,19.13,0,0,0-6.57-3.31,11,11,0,0,0-7.43.32l-.73.35-.08.06C133.71,336.28,131.05,340.83,130.34,347.51Z" transform="translate(-1 -51)"/></g><g id="_Group_2" data-name="&lt;Group&gt;"><path class="cls-4" d="M397.83,494.21l-.62-.43a45.23,45.23,0,0,1,.95-5,24.19,24.19,0,0,1,6,6.75l-.12.08c-.68.89-2.4,2-2.28,2.9A15.64,15.64,0,0,0,397.83,494.21Z" transform="translate(-1 -51)"/><path class="cls-3" d="M394.79,520.46a14.74,14.74,0,0,1-1.2-1c.46-1.47,1.36-2.94,1.47-4.53l.15-.2.39.29a8.54,8.54,0,0,0,2.89,1.43,34.86,34.86,0,0,0-.45,5.78A13.08,13.08,0,0,1,394.79,520.46Z" transform="translate(-1 -51)"/><path d="M446,519.85l-11.78-6.79a37.44,37.44,0,0,0,.12-6l1.76-1.51,10.21,5.82c0,.62,0,1.2-.05,1.78v.14c-.11,3.15-.21,5.42-.25,6.25Z" transform="translate(-1 -51)"/><path class="cls-9" d="M390,476.12a10.35,10.35,0,0,0-4.82.78l-.73.36-.08.06a11.79,11.79,0,0,0-4.7,4.82l-4.41,2.58c1.28-5.44,3.93-9.19,7.47-11.07l.12-.06.85-.39a12.66,12.66,0,0,1,8.45-.37,15.49,15.49,0,0,1,2.25.75L390,476.12Z" transform="translate(-1 -51)"/><path class="cls-4" d="M404.81,506.73a19.7,19.7,0,0,0-1.16-4.35,26,26,0,0,0,2.94-1.93,32.82,32.82,0,0,1,1.7,5.65A7.42,7.42,0,0,1,404.81,506.73Z" transform="translate(-1 -51)"/><path class="cls-4" d="M385.41,506.18a36.67,36.67,0,0,0,3.69-1.29A20.3,20.3,0,0,0,390.7,509c-1,.47-2.79,1.33-3.52,1.64A34.84,34.84,0,0,1,385.41,506.18Z" transform="translate(-1 -51)"/><path class="cls-5" d="M388.75,487.13a7,7,0,0,0-2.09,1.74,11.59,11.59,0,0,0-2.26,5.32c-.08.44-.14.89-.2,1.35a22.83,22.83,0,0,0,0,4.32,30.62,30.62,0,0,0,1.24,6.32,34.84,34.84,0,0,0,1.78,4.51v0a31.4,31.4,0,0,0,2.94,4.95,23.52,23.52,0,0,0,3.46,3.83,14.74,14.74,0,0,0,1.2,1,13.08,13.08,0,0,0,3.25,1.82,7.61,7.61,0,0,0,5.13.27,7.07,7.07,0,0,0,1.47-.71l.33-.23a8.45,8.45,0,0,0,2.55-3.25,12.75,12.75,0,0,0,.82-2.34,14.26,14.26,0,0,0,.41-2.32c.08-.7.09-1.41.11-2.13a27.94,27.94,0,0,0-.56-5.47,32.82,32.82,0,0,0-1.7-5.65,33.85,33.85,0,0,0-2.47-4.94,24.19,24.19,0,0,0-6-6.75,12.39,12.39,0,0,0-4.17-2.09,7.73,7.73,0,0,0-2.85-.27,6.4,6.4,0,0,0-1.85.46l-.49.25Zm6,35.54c-7.86-5.71-13.35-18.4-12.29-28.36.5-4.82,2.46-8.11,5.22-9.58l.08,0,.54-.25a8.22,8.22,0,0,1,5.44-.23,14.49,14.49,0,0,1,4.83,2.4c7.85,5.71,13.35,18.4,12.28,28.36a17,17,0,0,1-1.39,5.32,9.24,9.24,0,0,1-3.33,4,7.18,7.18,0,0,1-1.71.79C401.7,526,398.29,525.22,394.77,522.67Z" transform="translate(-1 -51)"/><path class="cls-3" d="M384.27,499.84c.83,0,2.86.14,4.16,0a17.08,17.08,0,0,0,.67,5,36.67,36.67,0,0,1-3.69,1.29,30.62,30.62,0,0,1-1.24-6.32Z" transform="translate(-1 -51)"/><path class="cls-3" d="M386.66,488.88a14.36,14.36,0,0,1,4.95,4.2l-.05,0,0,0a5.4,5.4,0,0,0-2.5,3.17c-1.54-.43-3.89-1.25-4.53-2.09h-.09A11.59,11.59,0,0,1,386.66,488.88Z" transform="translate(-1 -51)"/><path class="cls-3" d="M394.15,492.61a19,19,0,0,0-3-6.21,7.73,7.73,0,0,1,2.85.27,12.39,12.39,0,0,1,4.17,2.09,45.23,45.23,0,0,0-.95,5,7.92,7.92,0,0,0-2.18-.95,5.52,5.52,0,0,0-.87-.19Z" transform="translate(-1 -51)"/><path class="cls-10" d="M131.57,318.95a17.18,17.18,0,0,1,1.76-.1c4,0,9.26,1.29,16,5.13.25.14.48.27.72.43L115,344.81l6.71-19.71a.71.71,0,0,1,.08-.17s0,0,0,0a3.73,3.73,0,0,1,.19-.33s0,0,0,0a0,0,0,0,1,0,0,11.41,11.41,0,0,1,1.29-1.64,1,1,0,0,1,.12-.14,11.82,11.82,0,0,1,2.5-2A13.74,13.74,0,0,1,131.57,318.95Z" transform="translate(-1 -51)"/><path class="cls-7" d="M392.47,501.93A9.68,9.68,0,0,0,396,510a3.13,3.13,0,0,0,2.76.7,3.53,3.53,0,0,0,.48-.23,2.87,2.87,0,0,0,1-1.14,5.42,5.42,0,0,0,.4-1.51,9.73,9.73,0,0,0-3.52-8.08,4,4,0,0,0-1.37-.69,2.31,2.31,0,0,0-1.54.08l-.15.06,0,0A3.28,3.28,0,0,0,392.47,501.93Zm3.38,10.6c-3.44-2.47-5.86-8.07-5.38-12.42.22-2.13,1.07-3.56,2.29-4.2l0,0,.23-.12a3.75,3.75,0,0,1,2.4-.09,6.66,6.66,0,0,1,2.13,1.06c3.42,2.5,5.84,8.07,5.37,12.42a7,7,0,0,1-.61,2.32,4.06,4.06,0,0,1-1.47,1.76,3,3,0,0,1-.74.35A4.74,4.74,0,0,1,395.85,512.53Z" transform="translate(-1 -51)"/><path class="cls-11" d="M446.3,511.41l-10.21-5.82-1.76,1.51c-.77-14.24-8.61-30.24-19.25-38-5.43-3.95-10.68-5.09-15-3.75h0a11.79,11.79,0,0,0-2.9,1.39l-3,1.43c-4-1.37-6.36-1.16-7.91-.79a16.64,16.64,0,0,0-4.53,1.83,1.77,1.77,0,0,1-.23.16c-.17.11-.35.23-.52.33l-.25.19-.47.35-.21.18a6.77,6.77,0,0,0-.58.54c-1.53,1.61-13.12,18.36-13.73,19.25l-3.72-2.15,0-2.13.89-1.32,20.29-30.08,0-12.36L446,477.53c0,.16,0,.31,0,.46s0,.58.08.89,0,.33,0,.5a2.34,2.34,0,0,1,0,.35c.06.85.1,1.7.14,2.59a2.83,2.83,0,0,1,0,.39c0,.79.06,1.61.09,2.42a2.47,2.47,0,0,0,0,.42V486c0,.7,0,1.41.06,2.13v.39c0,.85,0,1.72,0,2.57v.74c0,.68,0,1.33,0,2v3.68c0,.5,0,1,0,1.49v.85c0,.35,0,.68,0,1s0,.62,0,.93v.91c0,.31,0,.62,0,.93s0,.66,0,1c0,.52,0,1,0,1.57,0,.23,0,.44,0,.68s0,.68,0,1a5.82,5.82,0,0,1,0,.6c0,.33,0,.68,0,1v.34C446.34,510.33,446.32,510.87,446.3,511.41Z" transform="translate(-1 -51)"/><path class="cls-6" d="M385.17,476.9a10.35,10.35,0,0,1,4.82-.78l-10.33,6a11.79,11.79,0,0,1,4.7-4.82l.08-.06Z" transform="translate(-1 -51)"/><path class="cls-10" d="M386.3,467.38c1.55-.37,3.95-.58,7.91.79l-10.52,5-.85.39-.12.06c-3.54,1.88-6.19,5.63-7.47,11.07l-9.47,5.49c.61-.89,12.21-17.64,13.73-19.25a6.77,6.77,0,0,1,.58-.54l.21-.18.47-.35.25-.19c.17-.1.34-.21.52-.33a1.77,1.77,0,0,0,.23-.16A16.64,16.64,0,0,1,386.3,467.38Z" transform="translate(-1 -51)"/><path class="cls-3" d="M387.18,510.69c.74-.31,2.55-1.18,3.52-1.64h0a16.67,16.67,0,0,0,1.76,2.86,40.71,40.71,0,0,1-2.36,3.75,31.4,31.4,0,0,1-2.94-4.95Z" transform="translate(-1 -51)"/><path class="cls-3" d="M404.92,510.61a14.44,14.44,0,0,0-.11-3.89,7.42,7.42,0,0,0,3.48-.64,27.94,27.94,0,0,1,.56,5.47,27.91,27.91,0,0,1-4-.52C404.88,510.91,404.91,510.77,404.92,510.61Z" transform="translate(-1 -51)"/><path class="cls-3" d="M403.65,502.38a20,20,0,0,0-1.94-3.89c-.11-.91,1.61-2,2.28-2.9l.12-.08a33.85,33.85,0,0,1,2.47,4.94A26,26,0,0,1,403.65,502.38Z" transform="translate(-1 -51)"/><path class="cls-8" d="M383.69,473.2l10.52-5a37.64,37.64,0,0,1,5.4,2.38l-5.22,3a15.49,15.49,0,0,0-2.25-.75A12.66,12.66,0,0,0,383.69,473.2Z" transform="translate(-1 -51)"/><path class="cls-4" d="M390.13,515.66a40.71,40.71,0,0,0,2.36-3.75,14.57,14.57,0,0,0,2.72,2.86l-.15.2c-.11,1.59-1,3.05-1.47,4.53A23.52,23.52,0,0,1,390.13,515.66Z" transform="translate(-1 -51)"/><path class="cls-4" d="M392.47,501.93A3.28,3.28,0,0,1,394,499.2l0,0,.15-.06a2.31,2.31,0,0,1,1.54-.08,4,4,0,0,1,1.37.69,9.73,9.73,0,0,1,3.52,8.08,5.42,5.42,0,0,1-.4,1.51,2.87,2.87,0,0,1-1,1.14,3.53,3.53,0,0,1-.48.23A3.13,3.13,0,0,1,396,510,9.68,9.68,0,0,1,392.47,501.93Z" transform="translate(-1 -51)"/><path class="cls-9" d="M392.6,476.59a13.06,13.06,0,0,0-2.59-.46l4.38-2.53a23.59,23.59,0,0,1,5.3,3c12.21,8.88,20.76,28.67,19.11,44.17a25.76,25.76,0,0,1-2.16,8.26,14.32,14.32,0,0,1-5.21,6.17,10,10,0,0,1-2.61,1.25c-4.33,1.4-9.63.3-15.11-3.69-12.21-8.9-20.78-28.67-19.12-44.18a29.27,29.27,0,0,1,.66-3.83l4.41-2.58a22.47,22.47,0,0,0-2.46,8.43c-1.49,13.79,6,31.36,16.66,39.23,4.79,3.54,9.44,4.53,13.21,3.29a10.8,10.8,0,0,0,2.3-1.1,13,13,0,0,0,4.54-5.51,23,23,0,0,0,1.92-7.35c1.47-13.79-6-31.34-16.68-39.23A19.19,19.19,0,0,0,392.6,476.59Z" transform="translate(-1 -51)"/><path class="cls-5" d="M390.47,500.11c-.48,4.35,1.94,9.94,5.38,12.42a4.74,4.74,0,0,0,4.24,1.06,3,3,0,0,0,.74-.35,4.06,4.06,0,0,0,1.47-1.76,7,7,0,0,0,.61-2.32c.47-4.35-2-9.92-5.37-12.42a6.66,6.66,0,0,0-2.13-1.06,3.75,3.75,0,0,0-2.4.09l-.23.12,0,0C391.54,496.56,390.69,498,390.47,500.11Zm-2-1.45a9.49,9.49,0,0,1,.54-2.36,5.4,5.4,0,0,1,2.5-3.17l0,0,.05,0,.25-.12a4.56,4.56,0,0,1,2.28-.31,5.52,5.52,0,0,1,.87.19,7.92,7.92,0,0,1,2.18.95l.62.43a15.64,15.64,0,0,1,3.89,4.28,20,20,0,0,1,1.94,3.89,19.7,19.7,0,0,1,1.16,4.35,14.44,14.44,0,0,1,.11,3.89c0,.16,0,.29-.05.43a8.72,8.72,0,0,1-.75,2.65,3.46,3.46,0,0,1-.33.6,5.06,5.06,0,0,1-1.58,1.7l-.14.08a8.74,8.74,0,0,1-.85.38,5,5,0,0,1-2.72,0,8.54,8.54,0,0,1-2.89-1.43l-.39-.29a14.57,14.57,0,0,1-2.72-2.86,16.67,16.67,0,0,1-1.76-2.86h0a20.3,20.3,0,0,1-1.61-4.16,17.08,17.08,0,0,1-.67-5C388.43,499.45,388.44,499.05,388.48,498.66Z" transform="translate(-1 -51)"/><path class="cls-4" d="M408.25,516a12.15,12.15,0,0,1-4.47-1.72,3.46,3.46,0,0,0,.33-.6,8.72,8.72,0,0,0,.75-2.65,27.91,27.91,0,0,0,4,.52c0,.72,0,1.43-.11,2.13a14.26,14.26,0,0,1-.41,2.32Z" transform="translate(-1 -51)"/><path class="cls-8" d="M434.33,507.1l-4.2,3.6-1.37-.79c-.15-.43-2.92-8.22-5.09-13a85.87,85.87,0,0,0-6-10.5,48.91,48.91,0,0,0-14.85-14c-.47-.3-.93-.56-1.38-.82-.64-.39-1.26-.72-1.86-1a37.64,37.64,0,0,0-5.4-2.38l3-1.43a11.79,11.79,0,0,1,2.9-1.39h0c4.29-1.33,9.54-.19,15,3.75C425.72,476.86,433.56,492.86,434.33,507.1Z" transform="translate(-1 -51)"/><path class="cls-4" d="M388.43,499.86c-1.3.12-3.33,0-4.16,0l-.1,0a22.83,22.83,0,0,1,0-4.32c.06-.46.12-.91.2-1.35h.09c.64.84,3,1.67,4.53,2.09a9.49,9.49,0,0,0-.54,2.36C388.44,499.05,388.43,499.45,388.43,499.86Z" transform="translate(-1 -51)"/><path class="cls-4" d="M391.61,493.07a14.36,14.36,0,0,0-4.95-4.2,7,7,0,0,1,2.09-1.74l0,0,.49-.25a6.4,6.4,0,0,1,1.85-.46,19,19,0,0,1,3,6.21v0a4.56,4.56,0,0,0-2.28.31Z" transform="translate(-1 -51)"/><path class="cls-3" d="M402.2,516a5.06,5.06,0,0,0,1.58-1.7,12.15,12.15,0,0,0,4.47,1.72h.08a12.75,12.75,0,0,1-.82,2.34A8.45,8.45,0,0,1,405,521.6l-.15-.21a31.7,31.7,0,0,0-2.75-5.32Z" transform="translate(-1 -51)"/><path class="cls-8" d="M430.13,510.69l4.08,2.36c0,.08,0,.14,0,.21a26.52,26.52,0,0,1-1.63,7l-1.39-.75Z" transform="translate(-1 -51)"/><path class="cls-12" d="M122,324.52c.21-.51,2.3-5.3,2.32-5.32l7.25-.25a13.74,13.74,0,0,0-5.65,1.82,11.82,11.82,0,0,0-2.5,2,1,1,0,0,0-.12.14A11.41,11.41,0,0,0,122,324.5,0,0,0,0,0,122,324.52Z" transform="translate(-1 -51)"/><path class="cls-8" d="M434.33,507.1a37.44,37.44,0,0,1-.12,6l-4.08-2.36Z" transform="translate(-1 -51)"/><path class="cls-6" d="M394.77,522.67c3.52,2.55,6.93,3.29,9.69,2.38a7.18,7.18,0,0,0,1.71-.79,9.24,9.24,0,0,0,3.33-4,17,17,0,0,0,1.39-5.32c1.07-10-4.43-22.65-12.28-28.36a14.49,14.49,0,0,0-4.83-2.4,8.22,8.22,0,0,0-5.44.23l-.54.25-.08,0c-2.76,1.47-4.72,4.76-5.22,9.58C381.42,504.27,386.91,517,394.77,522.67Zm-15.11-40.53,10.33-6h0a13.06,13.06,0,0,1,2.59.46,19.19,19.19,0,0,1,6.56,3.31c10.68,7.89,18.14,25.43,16.68,39.23a23,23,0,0,1-1.92,7.35,13,13,0,0,1-4.54,5.51,10.8,10.8,0,0,1-2.3,1.1c-3.77,1.24-8.42.25-13.21-3.29-10.66-7.87-18.15-25.43-16.66-39.23A22.47,22.47,0,0,1,379.66,482.14Z" transform="translate(-1 -51)"/><path class="cls-13" d="M53.7,304.44l.14-51.61.52.29,1.39.79,269.84,156-.13,51.67v3l36.62,21.36,0,2.13L184.4,385.5l-5.3-25c-.46-1.22-9.31-24.24-29-36.06-.23-.15-.46-.29-.72-.43-6.75-3.83-12-5.13-16-5.13a17.18,17.18,0,0,0-1.76.1l-7.25.25S122.2,324,122,324.52c0,0,0,0,0,0a3.73,3.73,0,0,0-.19.33s0,0,0,0a.71.71,0,0,0-.08.17L115,344.81,68.48,318l-2.26-6.3Z" transform="translate(-1 -51)"/><path class="cls-8" d="M399.68,476.57a23.59,23.59,0,0,0-5.3-3l5.22-3c.6.31,1.22.64,1.86,1,.44.25.91.52,1.38.82a48.91,48.91,0,0,1,14.85,14,85.87,85.87,0,0,1,6,10.5c2.17,4.78,4.93,12.57,5.09,13l1.37.79,1,8.78,1.39.75a14.38,14.38,0,0,1-6.63,8l-.66.33-13.85,6.6a14.32,14.32,0,0,0,5.21-6.17,25.76,25.76,0,0,0,2.16-8.26C420.44,505.24,411.89,485.45,399.68,476.57Z" transform="translate(-1 -51)"/><path class="cls-4" d="M403.16,522.55a7.61,7.61,0,0,1-5.13-.27,34.86,34.86,0,0,1,.45-5.78,5,5,0,0,0,2.72,0,8.74,8.74,0,0,0,.85-.38,31.7,31.7,0,0,1,2.75,5.32l.15.21-.33.23A7.07,7.07,0,0,1,403.16,522.55Z" transform="translate(-1 -51)"/><polygon points="532.86 314.78 532.64 316.02 447.43 365.55 446.08 365.21 456.93 358.91 495.07 336.74 532.86 314.78"/><polygon class="cls-14" points="495.07 336.74 456.93 358.91 456.91 358.87 458.24 351.31 492.17 331.54 493.26 330.92 494.67 336.04 495.07 336.74"/><path class="cls-14" d="M547,258.29q-10.88,6.32-21.76,12.63l.35-1.84,25-14.53s0,0,0,0v0a2.48,2.48,0,0,1,.08.39v0a2.38,2.38,0,0,1,0,.39,1,1,0,0,1-.05.33v0a1.26,1.26,0,0,1-.1.25s0,0,0,0l-.08.06a.82.82,0,0,1-.35.33Z" transform="translate(-1 -51)"/><path d="M398.37,344.48a.06.06,0,0,0,0,0v0l0,0v0a.08.08,0,0,0,0,0s0-.06,0-.08v0s0,0,0,0v0s0-.06,0-.08V344a.46.46,0,0,0,0-.08v-.29a.15.15,0,0,0,0-.08v-.08s0-.06,0-.08v-.1s0,0,0,0v0s0-.08,0-.11,0-.05,0-.08v0a.07.07,0,0,0,0,0l51.2-29.75-.35,1.84Q423.64,329.94,398,344.83a.34.34,0,0,1,.12-.08l.13-.15,0,0s0,0,0,0l0,0A.07.07,0,0,1,398.37,344.48Z" transform="translate(-1 -51)"/><path class="cls-14" d="M544.57,267.82l-21,12.05,1.69-9q10.88-6.3,21.76-12.63L555.87,295l-2.22,14.33Z" transform="translate(-1 -51)"/><polygon class="cls-14" points="483.35 260.39 496.21 307.04 492.64 328.71 479.85 282.32 483.24 260.43 483.35 260.39"/><polygon class="cls-14" points="534.23 307.02 560.02 292 552.65 258.33 554.87 244 567.17 294.84 551.08 304.2 551.08 302.01 550.63 304.45 532.86 314.78 534.23 307.02"/><polygon class="cls-12" points="552.65 258.33 560.02 292 534.23 307.02 539.72 276.03 548.95 282.19 552.65 258.33"/><polygon class="cls-15" points="543.57 216.82 552.65 258.33 548.95 282.19 539.72 276.03 534.23 307.02 501.48 326.12 496.21 307.04 500.45 281.43 510.8 290.99 522.54 228.88 543.57 216.82"/><polygon class="cls-12" points="479.85 282.32 492.64 328.71 492.17 331.54 458.24 351.31 464.09 318.38 473.31 324.53 479.85 282.32"/><polygon class="cls-14" points="492.64 328.71 493.26 330.92 492.17 331.54 492.64 328.71"/><polygon class="cls-14" points="481.2 252.59 483.35 260.39 483.24 260.43 479.85 282.32 472.95 257.33 481.2 252.59"/><path class="cls-13" d="M383.34,431.34l.2-70.86,5.18,0L388.58,406a6.47,6.47,0,0,0,.29,1.9h0a.27.27,0,0,0,0,.11c0,.08.06.18.08.25l.11.29c0,.1.06.18.1.27s0,0,0,0,0,0,0,.06.16.29.24.43.06.16.09.21a3.81,3.81,0,0,0,.25.4,2,2,0,0,0,.29.45,3.12,3.12,0,0,0,.27.39,1.32,1.32,0,0,0,.15.18,2.55,2.55,0,0,0,.31.37s0,0,0,.06h0l0,0a1,1,0,0,0,.18.15,1.31,1.31,0,0,0,.21.21,1.34,1.34,0,0,0,.19.18l.08.08,0,0,.06,0,.19.13a.8.8,0,0,0,.15.11.57.57,0,0,0,.17.1l.13.12a.05.05,0,0,1,0,0l13.22,7.62c2.12,1.24,3.85.25,3.85-2.18l-11.8-49.83,2.22-.54,14.47,59.74,1.65,6.83.69.69s.06.06.1.1c.68.68,1.78,1.76,3.13,3.15.83.84,1.74,1.78,2.73,2.79l.06.05,1,1,.23.23c.29.29.58.6.88.91l.23.25.41.43.68.72a0,0,0,0,1,0,0l1.18,1.26.17.17c.31.35.64.7,1,1l.31.33c.16.16.29.33.44.48l.22.24,1.78,2,.35.39,1.64,1.86a1.58,1.58,0,0,1,.27.31l1.76,2c.12.16.25.29.36.44.58.66,1.15,1.33,1.69,2l.1.11c.13.17.27.35.4.5l.53.64.48.62c.19.23.37.46.54.68s.27.37.43.56.34.47.52.69.25.33.36.49.35.48.53.72l.29.39c.33.48.64.93.93,1.37l.29.46c.12.16.2.31.29.46s.09.14.13.21Z" transform="translate(-1 -51)"/><path class="cls-14" d="M525.58,269.08l-.35,1.84q-38,22.09-76,44.16l.35-1.84Z" transform="translate(-1 -51)"/><polygon class="cls-15" points="479.85 282.32 473.31 324.53 464.09 318.38 458.24 351.31 419.77 373.74 417.88 365.68 424.82 323.76 435.17 333.31 446.7 272.38 472.95 257.33 479.85 282.32"/><polygon class="cls-12" points="446.7 272.38 435.17 333.31 424.82 323.76 417.88 365.68 402.03 297.99 446.7 272.38"/><path d="M398.31,342.72s0,.06,0,.08A.3.3,0,0,0,398.31,342.72Z" transform="translate(-1 -51)"/><path class="cls-14" d="M397.94,344.89l.08-.05q25.62-14.88,51.25-29.75l-1.57,8.3L403,349l15.85,67.69-1.67,10.08-2.86.7-14.47-59.74-5.18-21.45,1.84-1.09a2.73,2.73,0,0,0,1.49-.35A.3.3,0,0,1,397.94,344.89Z" transform="translate(-1 -51)"/><path class="cls-16" d="M386.1,329.92c.1.08.37.29.82.66l.72.58c.27.23.58.48.91.75l.08.08,1.2,1s0,0,0,0c.43.36.88.77,1.33,1.2,0,0,0,0,.06.06l0,0c.68.62,1.37,1.28,2,1.93,0,0,0,0,.06,0l.06.05,1.49,1.55a0,0,0,0,0,0,0,0,0,0,0,0,0,0c.43.46.82.93,1.2,1.37,0,0,0,0,0,.06a.06.06,0,0,1,0,0c.18.19.33.4.5.6v0c.15.19.29.37.43.56a1.2,1.2,0,0,0,.14.19c.08.14.17.27.25.39s.1.16.13.24a1.61,1.61,0,0,1,.19.33,1.09,1.09,0,0,0,.08.14l.06.12a.64.64,0,0,0,.08.13l.05.14c0,.08.08.17.12.25s0,.1,0,.15a.3.3,0,0,1,0,.08s0,0,0,.06a.4.4,0,0,1,0,.14.07.07,0,0,1,0,0v0s0,0,0,.08a1,1,0,0,0,0,.15s0,.08,0,.1v0s0,0,0,.08v.08a.15.15,0,0,1,0,.08v.23a.34.34,0,0,1,0,.15,1.06,1.06,0,0,1-.06.27.08.08,0,0,1,0,0,.08.08,0,0,1,0,.08v0a.06.06,0,0,1,0,0,.07.07,0,0,0,0,0l0,0s0,0,0,0l0,0-.13.15a.34.34,0,0,0-.12.08,2.73,2.73,0,0,1-1.49.35,19.31,19.31,0,0,1-5.69-1.24c-1.9-.64-3.43-1.29-3.83-1.47l-.11,0-47.65-27.55L289.19,286,236.12,255.3l-27.62-16L54.13,150.14l-1.59-.92c.1-.45,1.55-8,4.14-9.52a1.42,1.42,0,0,1,.29-.14s.1,0,.14-.06h.08a1.08,1.08,0,0,1,.35-.06h.21l.12,0h0l.19.1.33.15s0,0,0,0l.14.06c.08.06.17.09.27.15a.92.92,0,0,1,.19.09l.35.18.18.09.48.25a.42.42,0,0,1,.12.08c.35.19.74.39,1.14.62s.87.46,1.36.74c0,0,0,0,.06,0l.93.52.12.06,1,.58.06,0c1.16.64,2.46,1.37,3.87,2.17a1.68,1.68,0,0,0,.16.09l6.29,3.56.21.14C81.91,152.94,90,157.58,99.34,163l.2.11,2.34,1.34a1.19,1.19,0,0,0,.23.13l5.24,3C199.14,220.57,376.76,324.44,386.1,329.92Z" transform="translate(-1 -51)"/><path class="cls-14" d="M473.95,308.33l-26.25,15,1.57-8.3q38-22.11,76-44.16l-1.69,9-41.34,23.72Z" transform="translate(-1 -51)"/><polygon class="cls-14" points="532.86 314.78 495.07 336.74 494.67 336.04 493.26 330.92 501.48 326.12 534.23 307.02 532.86 314.78"/><path class="cls-11" d="M388.62,332l-.08-.08c-.33-.27-.64-.52-.91-.75s-.5-.43-.72-.58c-.44-.37-.72-.58-.82-.66l152.19-88.44.18.14s.06,0,.08.08a.09.09,0,0,1,.06,0l.18.14s0,0,0,0a2.23,2.23,0,0,1,.25.21s0,0,0,0l.33.25,0,0,.34.29.06.06.37.29a.29.29,0,0,0,.1.08l.37.33.06,0,1.28,1.11v0c.45.39.91.79,1.37,1.22l.06.06c.68.61,1.37,1.28,2,2a.22.22,0,0,1,.1.1c.52.5,1,1,1.51,1.55l.06.08c.43.46.83.93,1.19,1.37,0,0,.06.06.08.08.33.4.64.81.93,1.22l.12.17c.09.14.17.27.27.41l.12.2c.08.13.15.25.21.36l.14.23a.39.39,0,0,0,.08.15c.06.14.12.27.18.39v0a1.22,1.22,0,0,1,.08.23l.06.14-25,14.53-76,44.16L398.41,343a.4.4,0,0,0,0-.14s0,0,0-.06,0,0,0-.08,0-.09,0-.15-.08-.17-.12-.25l-.05-.14A.64.64,0,0,1,398,342l-.06-.12a1.09,1.09,0,0,1-.08-.14,1.61,1.61,0,0,0-.19-.33c0-.08-.09-.16-.13-.24s-.17-.25-.25-.39a1.2,1.2,0,0,1-.14-.19c-.14-.19-.27-.37-.43-.56v0c-.18-.19-.33-.4-.5-.6a.06.06,0,0,0,0,0s0,0,0-.06c-.39-.44-.78-.91-1.2-1.37a0,0,0,0,1,0,0,0,0,0,0,1,0,0l-1.49-1.55-.06-.05s0,0-.06,0c-.66-.65-1.35-1.31-2-1.93l0,0s-.06,0-.06-.06c-.46-.43-.91-.83-1.33-1.2,0,0,0,0,0,0Z" transform="translate(-1 -51)"/><polygon class="cls-14" points="474.42 371.93 447.43 365.55 532.64 316.02 532.86 314.78 550.63 304.45 545.99 329.35 545.18 329.83 474.67 371.99 474.42 371.93"/><path class="cls-12" d="M388.95,359.24a1,1,0,0,1,.08-.19.07.07,0,0,1,0-.06c0-.08.1-.14.14-.21s0,0,0,0l.17-.26a2.15,2.15,0,0,1,.23-.19,2,2,0,0,1,.31-.24l.09,0a2.2,2.2,0,0,1,.53-.17h0s.08,0,.12,0h.05a.68.68,0,0,1,.2,0h.29l.1,0c.05,0,.13,0,.19,0l.19,0,.2.06H392a.3.3,0,0,1,.1.06l.15.05c.06,0,.1.06.16.08l.15.08h0c.05,0,.14.06.19.1h0a1.86,1.86,0,0,1,.25.12s0,0,0,0h0a2,2,0,0,1,.31.22.3.3,0,0,0,.08.06c.64.54,1.66,1.76,2.77,4.64l0,0s0,.06,0,.08c.09.26.19.53.29.81,0,0,0,0,0,0,.06.17.12.36.18.56.11.35.23.72.35,1.1v0c.11.39.21.79.33,1.22s.16.64.24,1l11.8,49.83c0,2.44-1.72,3.43-3.85,2.18l-13.22-7.62a.05.05,0,0,0,0,0l-.13-.12c-.06,0-.12-.08-.17-.1a.46.46,0,0,1-.15-.13,1.52,1.52,0,0,1-.19-.11l-.06,0,0,0-.08-.08a1.34,1.34,0,0,1-.19-.18,1.31,1.31,0,0,1-.21-.21,1,1,0,0,1-.18-.15l0,0s0,0,0-.06a2.55,2.55,0,0,1-.31-.37,1.32,1.32,0,0,1-.15-.18,3.12,3.12,0,0,1-.27-.39,2,2,0,0,1-.29-.45,3.81,3.81,0,0,1-.25-.4c0-.06-.06-.14-.09-.21s-.15-.29-.24-.43,0,0,0-.06,0,0,0,0-.06-.17-.1-.27l-.11-.29c0-.08-.06-.17-.08-.25a.27.27,0,0,1,0-.11h0a6.47,6.47,0,0,1-.29-1.9l.13-45.54v0c0-.06,0-.12,0-.18a.49.49,0,0,1,0-.16.48.48,0,0,1,0-.17v-.15a.47.47,0,0,0,0-.16c0-.08.06-.14.08-.21S388.93,359.32,388.95,359.24Z" transform="translate(-1 -51)"/><polygon class="cls-14" points="496.21 307.04 501.48 326.12 493.26 330.92 492.64 328.71 496.21 307.04"/><polygon class="cls-12" points="481.2 252.59 522.54 228.88 510.8 290.99 500.45 281.43 496.21 307.04 483.35 260.39 481.2 252.59"/><path class="cls-13" d="M383.53,360.48V356l-57.71-33.32-.21,76.14-4.24-2.4h0l-267-154.14v5l0,3.14-.23-100.25L208.5,239.35l27.62,16L289.19,286l50.06,28.92,47.65,27.55.11,0c.41.17,1.93.83,3.83,1.47l3.85,2.33,5.18,21.45-2.22.54c-.08-.35-.16-.67-.24-1s-.21-.83-.33-1.22v0c-.11-.38-.23-.75-.35-1.1-.06-.2-.12-.39-.18-.56,0,0,0,0,0,0-.1-.29-.19-.56-.29-.81,0,0,0,0,0-.08l0,0c-1.1-2.89-2.13-4.1-2.77-4.64a.3.3,0,0,1-.08-.06,2,2,0,0,0-.31-.22h0s0,0,0,0a1.86,1.86,0,0,0-.25-.12h0v0a.49.49,0,0,1-.19-.08h0l-.15-.08c-.06,0-.1-.06-.16-.08l-.15-.05a.3.3,0,0,0-.1-.06h-.05l-.2-.06-.19,0c-.06,0-.14,0-.19,0l-.1,0h-.48l-.05,0s-.08,0-.12,0h0a2.2,2.2,0,0,0-.53.17l-.09,0a2,2,0,0,0-.31.24,2.15,2.15,0,0,0-.23.19l-.17.26s0,0,0,0-.09.14-.14.21a.07.07,0,0,0,0,.06,1,1,0,0,0-.08.19c0,.08-.06.14-.08.21s-.06.14-.08.21a.47.47,0,0,1,0,.16V360a.48.48,0,0,0,0,.17.49.49,0,0,0,0,.16c0,.06,0,.11,0,.18v0ZM219.66,326.36l.18-61.59L182,242.93l-65.54-37.86-.18,61.59Z" transform="translate(-1 -51)"/><polygon class="cls-14" points="443.6 364.63 445.43 365.58 414.99 383.28 413.35 376.45 416.21 375.76 417.88 365.68 419.77 373.74 458.24 351.31 456.91 358.87 456.93 358.91 446.08 365.21 443.6 364.63"/><path class="cls-17" d="M598.68,414.86v.27c0,.39,0,.77,0,1.16s0,.87,0,1.32c0,.27,0,.54,0,.79s0,.62,0,.9,0,.48,0,.74,0,.6,0,.89,0,.36,0,.56c0,1.1-.05,2.15-.09,3.09l-151.86,87-.27-.15c0-.54,0-1.08.06-1.64v-.34c0-.33,0-.68,0-1a5.82,5.82,0,0,0,0-.6c0-.33,0-.66,0-1s0-.44,0-.68c0-.53,0-1,0-1.57,0-.33,0-.66,0-1s0-.62,0-.93v-.91c0-.31,0-.62,0-.93s0-.66,0-1V499c0-.48,0-1,0-1.49v-3.68c0-.68,0-1.33,0-2V491c0-.85,0-1.72,0-2.57v-.39c0-.72,0-1.43-.06-2.13v-.39a2.47,2.47,0,0,1,0-.42c0-.82-.05-1.63-.09-2.42a2.83,2.83,0,0,0,0-.39c0-.89-.08-1.74-.14-2.59a2.34,2.34,0,0,0,0-.35c0-.17,0-.33,0-.5s-.06-.6-.08-.89,0-.31,0-.46,0-.31,0-.44c0-.31-.06-.6-.08-.89,0-.13,0-.27,0-.39s0-.21,0-.31c-.06-.58-.11-1.14-.18-1.7,0-.1,0-.21,0-.31s0-.08,0-.12c-.06-.4-.11-.81-.18-1.2a1.93,1.93,0,0,0,0-.34v0c0-.1,0-.18-.06-.28,0-.25-.08-.52-.14-.78a.9.9,0,0,0,0-.21c0-.11,0-.23-.06-.35a3,3,0,0,1-.08-.39s0-.1,0-.14-.06-.31-.09-.46a0,0,0,0,1,0,0v0l-.27-1,152.17-88.45c.09.31.19.64.26,1a.05.05,0,0,1,0,.05c.08.31.15.64.21,1a2.37,2.37,0,0,1,.08.36c.06.31.11.64.18,1a1.46,1.46,0,0,1,0,.27l.05.35c.06.4.12.81.18,1.24a3.13,3.13,0,0,1,0,.42c.08.54.13,1.11.19,1.71,0,.21,0,.44.06.68s.06.6.08.89.06.6.08.89,0,.62.06,1,0,.52.05.79c.06.85.1,1.72.14,2.63,0,.12,0,.21,0,.33,0,.81.06,1.64.1,2.5,0,.25,0,.5,0,.75,0,.78,0,1.54.06,2.34V400c0,.87,0,1.78,0,2.67v.56c0,.73,0,1.49,0,2.25v3.17c0,.35,0,.68,0,1v.77c0,.35,0,.68,0,1v.87c0,.33,0,.64,0,1s0,.58,0,.89ZM577.46,432c7.41-4.22,13.06-13.29,12.64-20.28l-.33-5.28c-.43-7-6.77-9.21-14.18-5L468.9,462.17c-7.39,4.22-13,13.29-12.61,20.25l.33,5.28c.43,7,6.79,9.23,14.18,5Z" transform="translate(-1 -51)"/><path class="cls-14" d="M598.43,424.59v0a2,2,0,0,1,0,.35c0,.29,0,.56,0,.83s0,.31,0,.45,0,.44,0,.65c0,.37,0,.72,0,1V428c0,1-.08,1.78-.1,2.36s0,.89-.06,1L446,519.85v-.28c0-.83.14-3.09.25-6.25v-.14c0-.58,0-1.16.05-1.78l.27.15Z" transform="translate(-1 -51)"/><path class="cls-11" d="M596.79,379.69,446.57,467l-2-1.16,151.43-88s0,0,0,.06a1.92,1.92,0,0,1,.14.29c.11.21.21.43.31.64,0,0,0,.05,0,.08Z" transform="translate(-1 -51)"/><path class="cls-11" d="M475.42,431.45l.05,0,76.28-44.69.33-.19V355.2l16.1-9.36.69.7c.51.5,1.2,1.19,2.09,2.1l.29.27c.14.15.29.29.44.45l.39.4c.14.14.25.27.38.39l.46.48.33.33c.36.38.73.77,1.14,1.16a2.92,2.92,0,0,0,.27.29c.19.19.39.41.6.62l.36.41c.21.2.43.41.62.62l.39.42c.23.21.45.45.66.68s.25.27.39.4c.39.41.77.81,1.16,1.24.18.17.33.35.5.52s.37.41.56.6.36.41.56.6l.54.6c.16.16.31.33.47.5l1.87,2c.1.1.17.18.25.27l1.8,2a1.93,1.93,0,0,1,.18.19c.62.7,1.22,1.39,1.8,2.09a3.82,3.82,0,0,1,.31.35c.6.69,1.18,1.39,1.75,2.07.13.18.28.35.43.53s.39.48.58.71.33.43.48.62.37.44.52.65a7.53,7.53,0,0,1,.5.66c.16.19.31.39.44.58s.35.46.53.7.25.35.37.5.4.58.6.87a3,3,0,0,1,.21.29c.25.37.5.74.72,1.08a4.22,4.22,0,0,1,.25.41c.14.21.28.43.39.64l.25.42c.08.18.17.33.25.49l-151.43,88-1.47-.83c0-.08-.09-.13-.13-.21s-.18-.31-.29-.46l-.29-.46c-.3-.45-.6-.89-.93-1.37l-.29-.39c-.18-.23-.35-.48-.53-.72s-.23-.33-.36-.49-.35-.46-.52-.69-.29-.37-.43-.56-.35-.45-.54-.68l-.48-.62-.53-.64c-.13-.15-.27-.33-.4-.5l-.1-.11c-.54-.66-1.1-1.33-1.69-2-.11-.15-.25-.29-.36-.44l-1.76-2a1.58,1.58,0,0,0-.27-.31l-1.64-1.86-.35-.39-1.78-2-.22-.24c-.15-.15-.29-.33-.44-.48l-.31-.33c-.33-.35-.66-.7-1-1l-.17-.17-1.18-1.26a0,0,0,0,0,0,0l-.68-.72-.41-.43-.23-.25c-.29-.31-.58-.62-.88-.91l-.23-.23-1-1-.06-.05c-1-1-1.91-2-2.73-2.79-1.35-1.39-2.46-2.47-3.13-3.15,0,0-.06-.08-.1-.1l30.78-17.87Z" transform="translate(-1 -51)"/><path class="cls-18" d="M590.09,411.72c.42,7-5.23,16.06-12.64,20.28L470.79,492.72c-7.39,4.22-13.75,2-14.18-5l-.33-5.28c-.43-7,5.22-16,12.61-20.25l106.69-60.72c7.41-4.22,13.75-2,14.18,5Zm-3.62-2.8c.06-5.79-5.57-7.24-12.57-3.25l-55.35,31.49L473,463.09c-7,4-12.71,11.92-12.77,17.7l0,4.37c-.05,5.79,5.57,7.24,12.57,3.25L513.89,465l59.76-34c7-4,12.72-11.92,12.78-17.7Z" transform="translate(-1 -51)"/><path d="M573.9,405.67c7-4,12.64-2.54,12.57,3.25l0,4.37c-.06,5.78-5.78,13.72-12.78,17.7l-59.76,34-1.83-3.21a1.31,1.31,0,0,0,.3-.19,6.12,6.12,0,0,0,2.22-4.39v-1.35H518c0,1,.43,1.52,1.08,1.52a2.08,2.08,0,0,0,1.17-.46,6.17,6.17,0,0,0,2.24-4.39V442c0-1-.43-1.53-1.08-1.53a1.77,1.77,0,0,0-.85.25l-2-3.58Zm8.24,8.11c.09-4.82-3.45-6.56-7.93-3.93l-15.11,8.9a18,18,0,0,0-5.79,5.9,15.69,15.69,0,0,0-2.51,7.54c-.1,4.8,3.44,6.56,7.93,3.93l15.11-8.9C578.33,424.59,582,418.56,582.14,413.78Zm-43.37,29.77V433c0-1-.43-1.53-1.08-1.53a2.07,2.07,0,0,0-1.16.46,6.14,6.14,0,0,0-2.23,4.4v10.5c0,1,.43,1.53,1.07,1.53a2,2,0,0,0,1.16-.46A6.11,6.11,0,0,0,538.77,443.55Zm-7.91,4.66V437.7c0-1-.43-1.53-1.09-1.53a1.93,1.93,0,0,0-1.16.46,6.11,6.11,0,0,0-2.25,4.37v10.5c0,1,.45,1.54,1.09,1.54a2.08,2.08,0,0,0,1.16-.46A6.18,6.18,0,0,0,530.86,448.21Z" transform="translate(-1 -51)"/><path class="cls-19" d="M574.21,409.85c4.49-2.63,8-.89,7.93,3.93s-3.81,10.81-8.3,13.44l-15.11,8.9c-4.49,2.63-8,.88-7.93-3.93a15.69,15.69,0,0,1,2.51-7.54,18,18,0,0,1,5.79-5.9Zm5,5.69c.33-3.46-2.34-4.55-6-2.42l-12.21,7.19a16.26,16.26,0,0,0-4.82,4.57,12.08,12.08,0,0,0-2.34,5.55c-.33,3.46,2.34,4.54,6,2.4l12.23-7.18C575.7,423.53,578.91,419,579.24,415.54Z" transform="translate(-1 -51)"/><path class="cls-20" d="M573.26,413.12c3.64-2.13,6.31-1,6,2.42s-3.54,8-7.15,10.11l-12.23,7.18c-3.62,2.14-6.29,1.06-6-2.4a12.08,12.08,0,0,1,2.34-5.55,16.26,16.26,0,0,1,4.82-4.57Z" transform="translate(-1 -51)"/><polygon class="cls-14" points="551.08 304.2 551.08 335.62 550.75 335.81 545.18 329.83 545.99 329.35 550.63 304.45 551.08 304.2"/><polygon class="cls-11" points="551.08 302.01 551.08 304.2 550.63 304.45 551.08 302.01"/><polygon class="cls-14" points="550.75 335.81 474.47 380.5 474.42 380.45 474.42 371.93 474.67 371.99 545.18 329.83 550.75 335.81"/><path class="cls-21" d="M538.77,433v10.52a6.11,6.11,0,0,1-2.24,4.37,2,2,0,0,1-1.16.46c-.64,0-1.07-.54-1.07-1.53v-10.5a6.14,6.14,0,0,1,2.23-4.4,2.07,2.07,0,0,1,1.16-.46C538.35,431.5,538.77,432,538.77,433Z" transform="translate(-1 -51)"/><path class="cls-11" d="M538.28,241.47,386.1,329.92c-9.34-5.47-187-109.35-278.75-162.34l-5.24-3a1.19,1.19,0,0,1-.23-.13l-2.34-1.34-.2-.11c-9.32-5.38-17.43-10-23.95-13.74l-.21-.14-6.29-3.56a1.68,1.68,0,0,1-.16-.09c-1.41-.79-2.71-1.53-3.87-2.17l-.06,0-1-.58-.12-.06-.93-.52s-.06,0-.06,0c-.48-.27-.93-.52-1.36-.74l-.93-.52L212.55,52.34l.48.25,0,0,1.78,1,.08.06.91.48.17.1,1,.56s.08,0,.1,0c.77.44,1.59.89,2.46,1.39l.21.11c.36.21.75.43,1.14.64a1.3,1.3,0,0,0,.23.14c.95.52,1.94,1.08,3,1.68h0c.5.29,1,.58,1.55.87a1.7,1.7,0,0,0,.33.19c.44.25.89.5,1.33.78a3.16,3.16,0,0,1,.39.21l1.37.8c.14.05.23.13.35.19,1.18.68,2.41,1.38,3.67,2.11a3.07,3.07,0,0,1,.39.21c.5.29,1,.58,1.57.88l.39.24,1.55.87c.21.13.45.27.68.39l1,.58,1.6.93,1.4.81c.27.13.52.29.79.44l1.16.66c.37.23.74.44,1.13.66s1,.58,1.5.87c.16.08.3.18.45.25l4.62,2.67,1,.58c.41.23.81.46,1.22.72s.82.47,1.24.69,1,.6,1.55.92c.23.11.46.25.7.39l2.52,1.45C351.3,132.12,528.94,236,538.28,241.47Z" transform="translate(-1 -51)"/><path class="cls-16" d="M530.86,437.7v10.5a6.18,6.18,0,0,1-2.25,4.4,2.08,2.08,0,0,1-1.16.46c-.64,0-1.09-.56-1.09-1.54V441a6.11,6.11,0,0,1,2.25-4.37,1.93,1.93,0,0,1,1.16-.46C530.43,436.18,530.86,436.72,530.86,437.7Z" transform="translate(-1 -51)"/><path class="cls-22" d="M522.52,442v10.5a6.17,6.17,0,0,1-2.24,4.39,2.08,2.08,0,0,1-1.17.46c-.65,0-1.08-.54-1.08-1.52V445.33a6.1,6.1,0,0,1,2.25-4.37l.3-.21a1.77,1.77,0,0,1,.85-.25C522.1,440.49,522.52,441,522.52,442Z" transform="translate(-1 -51)"/><path d="M518.55,437.16l2,3.58-.3.21a6.1,6.1,0,0,0-2.25,4.37v10.53h-3.45V446.7c0-1-.43-1.55-1.06-1.55a2,2,0,0,0-1.16.47,6.18,6.18,0,0,0-2.24,4.39v10.51c0,1,.44,1.54,1.08,1.54a1.62,1.62,0,0,0,.85-.27l1.83,3.21-41.11,23.41c-7,4-12.63,2.54-12.57-3.25l0-4.37c.06-5.78,5.77-13.71,12.77-17.7ZM497.6,461.67c.1-4.79-3.44-6.54-7.93-3.91l-15.11,8.9a17.91,17.91,0,0,0-5.79,5.92,15.6,15.6,0,0,0-2.51,7.53c-.1,4.8,3.46,6.56,7.93,3.91l15.1-8.88C493.79,472.51,497.51,466.48,497.6,461.67Z" transform="translate(-1 -51)"/><path class="cls-23" d="M514.59,455.85v1.35a6.12,6.12,0,0,1-2.22,4.39,1.31,1.31,0,0,1-.3.19,1.62,1.62,0,0,1-.85.27c-.64,0-1.08-.56-1.08-1.54V450a6.18,6.18,0,0,1,2.24-4.39,2,2,0,0,1,1.16-.47c.64,0,1.06.56,1.06,1.55Z" transform="translate(-1 -51)"/><path class="cls-19" d="M489.67,457.77c4.49-2.63,8-.89,7.93,3.91s-3.81,10.83-8.3,13.46L474.2,484c-4.47,2.65-8,.89-7.93-3.91a15.6,15.6,0,0,1,2.51-7.53,17.91,17.91,0,0,1,5.79-5.92Zm5,5.69c.33-3.46-2.34-4.54-6-2.42l-12.22,7.19a16.11,16.11,0,0,0-4.82,4.57,12,12,0,0,0-2.34,5.55c-.33,3.46,2.34,4.53,6,2.4l12.22-7.18C491.16,471.42,494.37,466.9,494.7,463.45Z" transform="translate(-1 -51)"/><path class="cls-20" d="M488.74,461c3.61-2.13,6.29-1,6,2.42s-3.54,8-7.16,10.12l-12.22,7.18c-3.62,2.13-6.29,1.07-6-2.4a12,12,0,0,1,2.34-5.55,16.11,16.11,0,0,1,4.82-4.57Z" transform="translate(-1 -51)"/><polygon class="cls-14" points="474.42 371.93 474.42 380.45 446.46 366.11 447.43 365.55 474.42 371.93"/><polygon class="cls-14" points="447.43 365.55 446.46 366.11 445.43 365.58 446.08 365.21 447.43 365.55"/><path class="cls-14" d="M447.46,417.11,416.69,435l-.69-.69,30.44-17.7Z" transform="translate(-1 -51)"/><polygon class="cls-14" points="446.08 365.21 445.43 365.58 443.6 364.63 446.08 365.21"/><path class="cls-14" d="M446.57,467l-2,1.14-.12-.33a3.54,3.54,0,0,0-.15-.37.15.15,0,0,0,0-.1s0-.05,0-.08l-.11-.23c-.06-.13-.14-.29-.21-.44s-.08-.16-.14-.26a.4.4,0,0,1,0-.08l.73-.43Z" transform="translate(-1 -51)"/><path class="cls-16" d="M446,477.09c0,.14,0,.29,0,.44L383.3,442.17l0-10.83L443.05,465a2.6,2.6,0,0,1,.21.35,4.71,4.71,0,0,1,.23.43l.18.29c0,.1.09.18.13.27s.1.18.14.26.15.31.21.44l.11.23s0,0,0,.08a.15.15,0,0,1,0,.1,3.54,3.54,0,0,1,.15.37l.12.33v0a5,5,0,0,1,.15.5c0,.16.1.33.13.48v0l.12.49s0,.1,0,.14a3,3,0,0,0,.08.39c0,.12,0,.23.06.35a.9.9,0,0,1,0,.21c.06.26.1.53.14.78,0,.1,0,.18.06.28v0a1.93,1.93,0,0,1,0,.34c.06.39.11.8.18,1.2,0,0,0,.08,0,.12s0,.21,0,.31c.06.56.12,1.12.18,1.7,0,.1,0,.19,0,.31s0,.25,0,.39C446,476.49,446,476.78,446,477.09Z" transform="translate(-1 -51)"/><path class="cls-16" d="M444.89,469.16c0-.15-.09-.33-.13-.48a5,5,0,0,0-.15-.5h0Z" transform="translate(-1 -51)"/><path class="cls-14" d="M444.52,465.83l-.73.43c0-.06-.08-.14-.12-.19l-.18-.29a4.71,4.71,0,0,0-.23-.43,2.6,2.6,0,0,0-.21-.35Z" transform="translate(-1 -51)"/><path class="cls-14" d="M398,344.83l-.08.05A.3.3,0,0,0,398,344.83Z" transform="translate(-1 -51)"/><path class="cls-14" d="M396.53,345.18l-1.84,1.09-3.85-2.33A19.31,19.31,0,0,0,396.53,345.18Z" transform="translate(-1 -51)"/><polygon class="cls-16" points="382.55 304.98 382.53 309.48 382.33 380.34 379.65 378.83 379.84 315.21 379.86 305.83 326.76 275.17 326.72 288.88 326.55 348.89 324.63 347.81 324.84 271.66 382.55 304.98"/><polygon class="cls-16" points="382.33 380.34 382.3 391.17 379.63 389.67 379.65 378.83 382.33 380.34"/><polygon class="cls-16" points="379.63 389.67 382.3 391.17 382.26 403.54 361.97 433.62 361.08 434.93 324.46 413.57 324.46 410.54 324.59 358.87 324.62 358.87 324.62 358.69 324.63 358.71 324.63 358.66 326.53 359.72 326.37 411.64 360.07 431.31 379.59 400.61 379.63 389.67"/><path class="cls-11" d="M380.86,356.83l0,9.39-4.43,0a8.37,8.37,0,0,0-3.81-6.61L334.7,337.7c-2.13-1.22-3.85-.25-3.85,2.18h-3.13l0-13.71Z" transform="translate(-1 -51)"/><path class="cls-11" d="M380.84,366.21l-.19,63.62-53.1-29.95.18-60h3.13l-.08,27.51a8.38,8.38,0,0,0,3.81,6.6l37.91,21.9c2.11,1.22,3.83.23,3.83-2.19l.08-27.51Z" transform="translate(-1 -51)"/><polygon class="cls-16" points="379.65 378.83 379.63 389.67 326.53 359.72 326.55 348.89 379.65 378.83"/><polygon class="cls-11" points="379.63 389.67 379.59 400.61 360.07 431.31 326.37 411.64 326.53 359.72 379.63 389.67"/><path class="cls-16" d="M372.6,359.57a8.37,8.37,0,0,1,3.81,6.61l-.08,27.51c0,2.42-1.72,3.41-3.83,2.19L334.59,374a8.38,8.38,0,0,1-3.81-6.6l.08-27.51c0-2.43,1.72-3.4,3.85-2.18Zm1.51,30.49.08-22.38a7.35,7.35,0,0,0-3.4-5.59L337,342.14c-1.87-1.12-3.4-.43-3.42,1.55l-.05,22.38a7.3,7.3,0,0,0,3.38,5.59l33.76,20C372.58,392.75,374.11,392,374.11,390.06Z" transform="translate(-1 -51)"/><path class="cls-12" d="M374.19,367.68l-.08,22.38c0,2-1.53,2.69-3.4,1.57l-33.76-20a7.3,7.3,0,0,1-3.38-5.59l.05-22.38c0-2,1.55-2.67,3.42-1.55l33.74,19.95A7.35,7.35,0,0,1,374.19,367.68Z" transform="translate(-1 -51)"/><polygon class="cls-16" points="326.55 348.89 326.53 359.72 324.63 358.66 324.63 355.76 324.63 352.62 324.63 349.82 324.63 347.86 324.63 347.81 326.55 348.89"/><polygon class="cls-16" points="324.63 347.81 324.63 347.86 320.4 345.41 324.63 347.81"/><polygon class="cls-16" points="324.63 349.82 324.63 352.62 324.62 352.6 324.63 349.82"/><path class="cls-16" d="M325.63,398.86v2l0,2.79s0,0-.08-.06c-.08-.23-.23-.64-.41-1a3.88,3.88,0,0,0-.2-.46c0-.06-.08-.14-.11-.19l0,0a.73.73,0,0,0-.11-.24,4,4,0,0,0-.39-.6,3.67,3.67,0,0,0-.23-.33l-.24-.27s0,0,0,0l-.41-.37s0,0,0,0a4.07,4.07,0,0,0-.45-.31L57.19,246.24a1.62,1.62,0,0,0-1.62-.18,1.58,1.58,0,0,0-.68,1.49l0-.27,0-.29-.45-4.72,267,154.14h0Z" transform="translate(-1 -51)"/><path class="cls-16" d="M325.61,403.6h0a.39.39,0,0,1,0,.14Z" transform="translate(-1 -51)"/><path class="cls-16" d="M325.63,403.62v3.14l0-1.49v-1.5A.39.39,0,0,0,325.63,403.62Z" transform="translate(-1 -51)"/><polygon class="cls-16" points="324.63 358.66 324.63 358.71 324.62 358.69 324.62 358.66 324.63 358.66"/><polygon class="cls-16" points="324.63 355.76 324.63 358.66 324.62 358.66 324.63 355.76"/><polygon class="cls-16" points="324.63 355.76 324.62 358.66 324.59 358.64 324.62 354.26 324.63 355.76"/><path class="cls-16" d="M325.61,403.76v0a.65.65,0,0,1,0,.21,1.65,1.65,0,0,1-2.38,1.06,1.82,1.82,0,0,1-.31-.15L57.17,251.5h0a4.07,4.07,0,0,1-.56-.43l-.08-.06s-.06-.06-.08-.1h0l-.1-.1c-.08-.08-.15-.18-.23-.27s-.06-.06-.08-.1,0,0,0,0a5.7,5.7,0,0,1-.8-1.41,4.22,4.22,0,0,1-.15-.5,3.25,3.25,0,0,1-.1-.42c0-.16,0-.29,0-.43v-.1a1.58,1.58,0,0,1,.68-1.49,1.62,1.62,0,0,1,1.62.18L322.92,399.66a4.07,4.07,0,0,1,.45.31s0,0,0,0l.41.37s0,0,0,0l.24.27a3.67,3.67,0,0,1,.23.33c.16.27.37.6.5.84l0,0c0,.05.08.13.11.19l.06.18a1,1,0,0,0,.08.15s0,.08.05.14,0,.08,0,.12a.41.41,0,0,1,0,.14.21.21,0,0,1,0,.11.28.28,0,0,1,0,.11s0,.06,0,.1,0,.08,0,.1a.22.22,0,0,0,0,.11s0,.06,0,.1,0,.06,0,.07v0c0,.06.08.06.12.06A1,1,0,0,0,325.61,403.76Z" transform="translate(-1 -51)"/><path class="cls-24" d="M325.61,403.8v1.47l0,4.38-2.42-1.35-.36-.21L55.75,253.91l-1.39-.79v-2.73l0-3.14a12,12,0,0,0,.5,1.37.79.79,0,0,1,.08.16,7.79,7.79,0,0,0,1,1.61h0s0,0,0,0,.06.06.08.1a1.62,1.62,0,0,0,.23.27l.1.1a.25.25,0,0,1,.1.1l.08.06a4.07,4.07,0,0,0,.56.43h0L322.9,404.92a1.82,1.82,0,0,0,.31.15c1.12.49,2.25.1,2.38-1.06A.65.65,0,0,0,325.61,403.8Z" transform="translate(-1 -51)"/><polygon class="cls-16" points="324.62 358.66 324.62 358.69 324.59 358.69 324.59 358.64 324.62 358.66"/><rect class="cls-16" x="324.59" y="358.7" width="0.02" height="0.17"/><polygon class="cls-16" points="324.59 358.64 324.59 358.69 322.17 357.29 324.59 358.64"/><polygon class="cls-16" points="324.59 358.69 324.59 358.87 54.76 202.91 321.81 357.07 322.17 357.29 324.59 358.69"/><path class="cls-16" d="M325.54,403.55s-.1,0-.12-.06v0s0-.06,0-.07,0-.08,0-.1a.22.22,0,0,1,0-.11s0-.06,0-.1,0-.08,0-.1a.28.28,0,0,0,0-.11.21.21,0,0,0,0-.11.41.41,0,0,0,0-.14s0-.08,0-.12C325.3,402.91,325.46,403.31,325.54,403.55Z" transform="translate(-1 -51)"/><path class="cls-16" d="M325.13,402.5c0-.06,0-.1-.05-.14a1,1,0,0,1-.08-.15l-.06-.18A3.88,3.88,0,0,1,325.13,402.5Z" transform="translate(-1 -51)"/><path class="cls-16" d="M325.59,404c-.13,1.16-1.26,1.55-2.38,1.06A1.65,1.65,0,0,0,325.59,404Z" transform="translate(-1 -51)"/><path class="cls-16" d="M219.84,264.77l-.18,61.59-103.4-59.7.18-61.59L182,242.93Zm-4,55L216,267l-96.28-55.6-.16,52.81Z" transform="translate(-1 -51)"/><polygon class="cls-12" points="214.99 215.95 214.83 268.76 118.55 213.17 118.71 160.35 214.99 215.95"/><path class="cls-16" d="M212.55,52.34,60.38,140.77l-.21-.1a.42.42,0,0,0-.12-.08l-.48-.25-.18-.09-.35-.18a.92.92,0,0,0-.19-.09c-.1-.06-.19-.1-.27-.15l-.14-.06s0,0,0,0l-.33-.15-.19-.1h0l-.12,0H57.4l-.14,0,0,0s0,0,0,0h-.08s-.1,0-.14.06l-.1,0,152-88.33h0a2.26,2.26,0,0,1,.47-.19.08.08,0,0,0,.06,0,1.65,1.65,0,0,1,.54,0l.31.14c.1,0,.19.09.33.15l.06,0,.06,0a3,3,0,0,0,.37.18,1,1,0,0,0,.15.1l.35.18.21.11.41.21.21.12S212.51,52.3,212.55,52.34Z" transform="translate(-1 -51)"/><path class="cls-16" d="M57,139.57a1.42,1.42,0,0,0-.29.14l.19-.12Z" transform="translate(-1 -51)"/><path class="cls-16" d="M56.43,250.92s.06.06.08.1a.25.25,0,0,0-.1-.1Z" transform="translate(-1 -51)"/></g><g id="_Group_3" data-name="&lt;Group&gt;"><path class="cls-24" d="M224.83,340.13v9s-23.51,11-81-22.15c-46.8-27-45.36-40.68-43.67-51.35,0,7.13,6.64,20.94,43.67,42.3C201.32,351.19,224.83,340.13,224.83,340.13Z" transform="translate(-1 -51)"/><path class="cls-16" d="M224.83,340.13s-23.51,11.06-81-22.15c-37-21.36-43.65-35.18-43.67-42.3v-.05c.19-1,.35-2.08.46-3.08a6.59,6.59,0,0,1,1.53-2.7Z" transform="translate(-1 -51)"/></g><path class="cls-16" d="M299.33,366.79s-29.45-76.3-28-77,31.1,73.85,31.1,73.85,1.37,4.31,0,5.17S299.33,366.79,299.33,366.79Z" transform="translate(-1 -51)"/><path class="cls-16" d="M314.55,366.1s-47.32-66.69-46.08-67.68,48.32,63.91,48.32,63.91,2.38,3.84,1.27,5S314.55,366.1,314.55,366.1Z" transform="translate(-1 -51)"/><path class="cls-14" d="M72.57,207.62l0,13.18a6.3,6.3,0,0,1,.93.57c5.85,4.36,7.84,14.11,7.84,14.11l6.13,3.46s2.33-7.17,6.84-5.18l.05-13.59Z" transform="translate(-1 -51)"/><polygon class="cls-11" points="71.59 153.12 71.57 156.62 93.33 169.16 93.33 166.52 119.33 137.33 97.05 124.49 71.59 153.12"/><path class="cls-24" d="M94.33,220.16l-.05,13.59a4.14,4.14,0,0,1,.91.48c5.1,3.4,5.7,12.37,5.7,12.37l7,3.94s.75-9.15,5.76-6.29l0-12.93Z" transform="translate(-1 -51)"/><polygon class="cls-16" points="93.33 166.52 93.33 169.16 112.64 180.33 112.65 175.28 137.25 147.65 119.33 137.33 93.33 166.52"/><path class="cls-14" d="M113.64,231.33l0,12.93.29.18c5.3,3.41,7.49,13.79,7.49,13.79l6.88,3.91s1-9.17,7.48-5.77l.2.11,0-12.25Z" transform="translate(-1 -51)"/><polygon class="cls-11" points="112.65 175.28 112.64 180.33 135 193.23 135.02 188.08 159.57 160.52 137.25 147.65 112.65 175.28"/><path class="cls-24" d="M136,244.23l0,12.25c6.29,3.51,4.68,12.68,4.68,12.68l6.72,3.79s1.22-8.34,6.19-5.83l0-12.75Z" transform="translate(-1 -51)"/><polygon class="cls-16" points="135.02 188.08 135 193.23 152.58 203.37 152.58 199.77 178.06 171.14 159.57 160.52 135.02 188.08"/><path class="cls-14" d="M153.58,254.37l0,12.75a7.07,7.07,0,0,1,.64.36c5.49,3.62,7.69,13.74,7.69,13.74l.27.15,7,3.95s1-8,5.74-6.14l0-12.47Z" transform="translate(-1 -51)"/><polygon class="cls-11" points="152.58 199.77 152.58 203.37 173.89 215.7 173.91 210.52 198.46 182.88 178.06 171.14 152.58 199.77"/><path class="cls-24" d="M174.89,266.7l0,12.47a4.18,4.18,0,0,1,.89.43c5.49,3.2,5.08,12.36,5.08,12.36l8.71,4.94s0-8.37,5.59-6l0-12.5Z" transform="translate(-1 -51)"/><polygon class="cls-16" points="173.91 210.52 173.89 215.7 194.16 227.4 194.18 222.88 219.15 194.8 198.46 182.88 173.91 210.52"/><path class="cls-14" d="M195.15,278.4l0,12.5a6.31,6.31,0,0,1,.86.41c6.17,3.48,10.28,15.11,10.28,15.11l8.74,4.94-.07-21.46.07-.06Z" transform="translate(-1 -51)"/><polygon class="cls-11" points="194.18 222.88 194.16 227.4 213.98 238.84 241.38 208.02 241.57 207.71 219.15 194.8 194.18 222.88"/><polygon class="cls-24" points="213.98 238.84 213.91 238.9 213.98 260.36 224.26 266.97 223.28 244.21 213.98 238.84"/><polygon class="cls-16" points="241.38 208.02 213.98 238.84 223.28 244.21 249.59 212.33 241.57 207.71 241.38 208.02"/><polygon class="cls-14" points="249.59 212.33 223.28 244.21 224.26 266.97 224.85 268.01 249.59 253.74 249.64 253.74 249.59 212.33"/><path class="cls-25" d="M457.39,241.13l8.87-17.93c1.31-2.65.06-5.31-4-7.3L443,206.55c-6.42-3.12-17.88-3.62-28-1.55l11.08-22.39c1.31-2.65.06-5.32-4-7.31L402.89,166c-7.89-3.84-23.38-3.71-34.58.26l-32.58,11.56c-4.09,1.44-7.06,3.22-8.78,5.07h0l-1.74,3.52L321.95,193c-15.24-8.51-27.38-16-37.64-21l-14.36,8.14,18.14,10.06-23.89-7-16.56,9.62s13,2.57,47.23,12.52l-22.69,8.06c-4.09,1.44-7.06,3.21-8.78,5.06h0l-1.74,3.51L245.28,255c-1.32,2.66-.06,5.32,4,7.31l19.22,9.35a27,27,0,0,0,7.12,2.12A59.25,59.25,0,0,0,301.38,272c.59-.18,1.17-.36,1.73-.56l32.6-11.57c4.09-1.45,7-3.23,8.75-5.07l1.76-3.56,6.2-12.51a61.81,61.81,0,0,0,7.64-1.07L349,260c-1.31,2.65-.06,5.32,4,7.31l19.23,9.35a26.86,26.86,0,0,0,7.11,2.12A59.22,59.22,0,0,0,405.07,277c.59-.18,1.16-.36,1.72-.56l24.58-8.73c37.63,19.67,66.75,33.91,68.82,32s-22.29-17.18-55.94-37a16,16,0,0,0,3.89-2.89l1.76-3.55,3-6.15c46.66,12.68,82.77,21.67,84.41,19.6S503.79,255.67,457.39,241.13Z" transform="translate(-1 -51)"/><g id="_Group_4" data-name="&lt;Group&gt;"><path class="cls-19" d="M404.77,141.5c6,3.15,6.3,8.36.59,11.64l-16.56,9.51c-5.7,3.26-15.21,3.37-21.24.22l-14.72-7.69c-6-3.15-6.32-8.36-.62-11.64L368.8,134c5.7-3.27,15.2-3.37,21.24-.22Z" transform="translate(-1 -51)"/><path class="cls-26" d="M417.68,138.86c9.11,4.75,9.51,12.61.93,17.55l-25,14.36c-8.6,4.94-22.94,5.08-32,.33l-22.22-11.61c-9.1-4.74-9.51-12.61-.91-17.55l25-14.35c8.6-4.94,22.94-5.09,32-.33Zm-12.32,14.29c5.7-3.29,5.43-8.5-.59-11.64L390,133.81c-6-3.15-15.54-3-21.24.22l-16.58,9.52c-5.7,3.28-5.43,8.49.62,11.64l14.72,7.69c6,3.15,15.54,3,21.24-.22Z" transform="translate(-1 -51)"/><path class="cls-27" d="M361.55,171.1c9.1,4.75,23.44,4.61,32-.33l25-14.36c8.59-4.94,8.18-12.8-.93-17.55l-22.21-11.59c-9.11-4.77-23.45-4.61-32,.33l-25,14.35c-8.6,4.94-8.19,12.8.91,17.55Zm32.88,3.49c-7.2,3.68-17.42,4.64-26.29,2.84a33.6,33.6,0,0,1-9.05-3.07l-25.26-13.21c-4.19-2.17-6.76-4.93-7.68-7.83v-5c.85-2.61,3.06-5.11,6.64-7.14l28.43-16.33c9.78-5.62,26.11-5.79,36.47-.38l25.25,13.19C428.3,140.5,431,144.26,431,148c0,3.46-2.33,6.94-7,9.65L395.53,174C395.18,174.2,394.81,174.4,394.43,174.59Z" transform="translate(-1 -51)"/><path class="cls-28" d="M326.14,200V153.33c.92,2.9,3.49,5.65,7.68,7.83l25.26,13.21a33.6,33.6,0,0,0,9.05,3.07v49.09a33,33,0,0,1-8.64-3l-25.26-13.19C328.87,207.52,326.14,203.76,326.14,200Z" transform="translate(-1 -51)"/><path class="cls-29" d="M394.43,174.59v49.35c-7.29,3.56-17.49,4.43-26.29,2.57V177.43C377,179.23,387.23,178.27,394.43,174.59Z" transform="translate(-1 -51)"/><path class="cls-30" d="M431,194.64v5c-.85,2.6-3,5.1-6.63,7.15L396,223.15c-.49.29-1,.54-1.53.79V174.59c.38-.19.75-.4,1.1-.6L424,157.65c4.72-2.7,7-6.18,7-9.65Z" transform="translate(-1 -51)"/></g><g id="_Group_5" data-name="&lt;Group&gt;"><path class="cls-31" d="M356.12,191.71c6,3.15,6.3,8.36.6,11.64l-16.57,9.51c-5.7,3.27-15.22,3.38-21.23.23L304.2,205.4c-6-3.15-6.32-8.36-.61-11.65l16.58-9.51c5.7-3.26,15.2-3.37,21.24-.22Z" transform="translate(-1 -51)"/><path class="cls-26" d="M369,189.08c9.11,4.75,9.52,12.61.92,17.55L345,221c-8.6,4.94-22.95,5.07-32.05.33L290.7,209.7c-9.1-4.74-9.52-12.61-.92-17.55l25-14.34c8.59-4.94,22.94-5.09,32.05-.32Zm-12.32,14.28c5.7-3.28,5.43-8.49-.6-11.64L341.4,184c-6-3.15-15.55-3-21.24.22l-16.58,9.51c-5.7,3.29-5.43,8.5.61,11.65l14.73,7.69c6,3.15,15.53,3,21.23-.23Z" transform="translate(-1 -51)"/><path class="cls-27" d="M312.91,221.31c9.11,4.75,23.45,4.62,32.05-.33l25-14.36c8.6-4.94,8.19-12.8-.92-17.55l-22.2-11.59c-9.11-4.77-23.46-4.62-32.05.32l-25,14.34c-8.6,4.94-8.19,12.8.92,17.55Zm32.88,3.49c-7.2,3.67-17.43,4.64-26.29,2.84a33.58,33.58,0,0,1-9.06-3.07l-25.26-13.21c-4.19-2.17-6.76-4.93-7.67-7.83v-5h0c.85-2.61,3.06-5.11,6.64-7.15l28.42-16.32c9.79-5.61,26.11-5.79,36.48-.37L374.3,187.9c5.36,2.81,8.09,6.58,8.09,10.32,0,3.47-2.33,6.95-7,9.65L346.9,224.2C346.54,224.41,346.17,224.61,345.79,224.81Z" transform="translate(-1 -51)"/><path class="cls-28" d="M277.51,250.23V203.54c.91,2.9,3.49,5.66,7.67,7.83l25.26,13.21a33.58,33.58,0,0,0,9.06,3.07v49.08a33.45,33.45,0,0,1-8.64-3l-25.26-13.19C280.23,257.73,277.51,254,277.51,250.23Z" transform="translate(-1 -51)"/><path class="cls-29" d="M345.79,224.81v49.35c-7.3,3.56-17.5,4.43-26.29,2.57V227.65C328.36,229.45,338.59,228.48,345.79,224.81Z" transform="translate(-1 -51)"/><path class="cls-30" d="M382.38,244.85v5c-.84,2.6-3,5.1-6.61,7.15l-28.45,16.34c-.49.29-1,.54-1.53.8V224.81c.38-.2.75-.4,1.11-.6l28.44-16.34c4.71-2.71,7-6.18,7-9.65Z" transform="translate(-1 -51)"/></g><g id="_Group_6" data-name="&lt;Group&gt;"><path class="cls-32" d="M468.53,198.8c6,3.16,6.3,8.37.6,11.65L452.56,220c-5.7,3.27-15.22,3.37-21.24.23l-14.73-7.69c-6-3.15-6.31-8.37-.6-11.65l16.57-9.51c5.71-3.27,15.2-3.37,21.25-.22Z" transform="translate(-1 -51)"/><path class="cls-26" d="M481.44,196.16c9.1,4.74,9.51,12.61.92,17.55l-25,14.37c-8.59,4.94-22.94,5.07-32,.32L403.09,216.8c-9.1-4.75-9.51-12.62-.91-17.56l25-14.34c8.6-4.94,22.95-5.09,32.05-.32Zm-12.32,14.28c5.7-3.28,5.43-8.49-.6-11.65l-14.72-7.69c-6-3.15-15.54-3-21.25.22L416,200.84c-5.71,3.28-5.43,8.5.6,11.65l14.73,7.69c6,3.14,15.54,3,21.24-.23Z" transform="translate(-1 -51)"/><path class="cls-27" d="M425.31,228.4c9.11,4.75,23.45,4.62,32-.32l25-14.37c8.6-4.93,8.18-12.8-.92-17.55l-22.21-11.59c-9.11-4.77-23.45-4.62-32.05.32l-25,14.34c-8.6,4.93-8.19,12.8.91,17.56Zm32.88,3.49c-7.2,3.68-17.43,4.64-26.3,2.84a33.73,33.73,0,0,1-9.05-3.06l-25.26-13.21c-4.19-2.17-6.76-4.93-7.67-7.83v-5h0c.85-2.61,3.06-5.11,6.64-7.15L425,182.17c9.78-5.61,26.11-5.78,36.48-.37L486.7,195c5.36,2.8,8.08,6.57,8.08,10.31,0,3.48-2.33,6.95-7,9.65L459.3,231.29C458.94,231.5,458.57,231.7,458.19,231.89Z" transform="translate(-1 -51)"/><path class="cls-28" d="M389.91,257.32V210.63c.92,2.9,3.49,5.65,7.67,7.83l25.26,13.21a33.73,33.73,0,0,0,9.05,3.06v49.09a33.77,33.77,0,0,1-8.64-3L398,267.63C392.63,264.82,389.91,261.06,389.91,257.32Z" transform="translate(-1 -51)"/><path class="cls-29" d="M458.19,231.89v49.35c-7.31,3.56-17.5,4.43-26.3,2.58V234.73C440.76,236.53,451,235.56,458.19,231.89Z" transform="translate(-1 -51)"/><path class="cls-30" d="M494.78,251.94v5c-.85,2.61-3,5.11-6.62,7.15l-28.44,16.34a17.18,17.18,0,0,1-1.53.8V231.89c.38-.19.75-.39,1.1-.6L487.74,215c4.71-2.71,7-6.18,7-9.65Z" transform="translate(-1 -51)"/></g><path class="cls-33" d="M570.8,313.29c3.52-8-321.8-195.45-321.8-195.45s-6.08-2.92-9.61,4.1,0,8,0,8S567.29,321.28,570.8,313.29Z" transform="translate(-1 -51)"/><path class="cls-20" d="M594.42,270.92c1.88-8.52-353.84-128.66-353.84-128.66S234,140.6,232,148.17s1.57,7.88,1.57,7.88S592.54,279.45,594.42,270.92Z" transform="translate(-1 -51)"/><g id="_Group_7" data-name="&lt;Group&gt;"><path class="cls-34" d="M255.68,181.78v.31l-10.29,6.73L93.75,101.27c0-7.64,10-7.18,10-7.18Z" transform="translate(-1 -51)"/><path class="cls-35" d="M255.68,182.08V241.5s-8.74,7.79-10,7.15V189l-.25-.14Z" transform="translate(-1 -51)"/><polygon class="cls-36" points="244.39 137.82 244.64 137.96 244.64 197.65 92.75 110.46 92.75 50.27 244.39 137.82"/></g><path class="cls-14" d="M126.3,158.78q0,6.84-3.66,8.52-3.31,1.6-8.36-1.51a26.35,26.35,0,0,1-5-4,19.49,19.49,0,0,1-4.27-6,7.73,7.73,0,0,1-.74-3c0-1.37.33-2.22,1-2.58a2.46,2.46,0,0,1,2.48.39,26.49,26.49,0,0,1,3.31,3,26,26,0,0,0,4.22,3.66,2.46,2.46,0,0,0,2.51.36c.68-.36,1-1.22,1-2.55a7.85,7.85,0,0,0-1.44-4.64,42,42,0,0,0-4-4.64,40,40,0,0,1-6.09-7.74,19.6,19.6,0,0,1-2.65-9.86q0-6.36,3.39-8,3.18-1.56,7.84,1.31a20.46,20.46,0,0,1,6.2,5.7,10.63,10.63,0,0,1,2.29,5.83c0,2.79-1.08,3.53-3.23,2.2a15.64,15.64,0,0,1-2.68-2.41,15.89,15.89,0,0,0-2.81-2.48,3.08,3.08,0,0,0-2.35-.6q-1.09.3-1.09,2.17a5.87,5.87,0,0,0,.39,2.12,12.93,12.93,0,0,0,2.39,3.47l2.79,2.92a39.3,39.3,0,0,1,6,8.23A21.84,21.84,0,0,1,126.3,158.78Z" transform="translate(-1 -51)"/><path class="cls-14" d="M130,155.2V137.35q0-7.14,3.62-4.92t3.61,9.36v16.69q0,11.75,6.4,15.68t6.4-7.8v-16.7q0-7.13,3.62-4.91t3.61,9.36V172q0,9.32-3.44,12.52-3.56,3.43-10.19-.64A26.35,26.35,0,0,1,133.49,172,39.49,39.49,0,0,1,130,155.2Z" transform="translate(-1 -51)"/><path class="cls-14" d="M183.25,193.8q0,6.83-3.66,8.52-3.31,1.6-8.36-1.51a26.55,26.55,0,0,1-5-4,19.58,19.58,0,0,1-4.27-6,7.74,7.74,0,0,1-.74-3c0-1.37.34-2.23,1-2.58a2.47,2.47,0,0,1,2.48.38,26.14,26.14,0,0,1,3.31,3,26.35,26.35,0,0,0,4.23,3.66,2.45,2.45,0,0,0,2.5.36c.68-.37,1-1.22,1-2.55a7.8,7.8,0,0,0-1.44-4.63,41.3,41.3,0,0,0-4-4.64,39.53,39.53,0,0,1-6.1-7.74,19.56,19.56,0,0,1-2.66-9.85q0-6.36,3.4-8,3.18-1.55,7.84,1.31a20.54,20.54,0,0,1,6.2,5.69,10.67,10.67,0,0,1,2.29,5.83q0,4.18-3.22,2.2a15.45,15.45,0,0,1-2.68-2.41,15.69,15.69,0,0,0-2.8-2.48,3.08,3.08,0,0,0-2.35-.59q-1.09.29-1.09,2.17a6,6,0,0,0,.39,2.12,13,13,0,0,0,2.4,3.46l2.79,2.92a39.21,39.21,0,0,1,6,8.23A21.77,21.77,0,0,1,183.25,193.8Z" transform="translate(-1 -51)"/><path class="cls-14" d="M194.22,196.52v11.27q0,7.15-3.61,4.93T187,203.36v-31q0-7.14,3.62-4.92t3.61,9.37v10.42l13.32,8.19V185q0-7.15,3.62-4.93t3.61,9.36v31q0,7.14-3.61,4.92T207.55,216V204.72Z" transform="translate(-1 -51)"/><path class="cls-14" d="M227.84,228.47q0,7.14-3.61,4.92T220.6,224V193q0-7.14,3.62-4.92t3.61,9.36Z" transform="translate(-1 -51)"/></g></g></svg>