<svg id="Layer_1" data-name="Layer 1" xmlns="http://www.w3.org/2000/svg" viewBox="0 0 563.24 563.24"><defs><style>.cls-1{fill:#f8f9fa;}</style></defs><title>bordetitulo2blanco</title><g id="_Group_" data-name="&lt;Group&gt;"><path id="_Compound_Path_" data-name="&lt;Compound Path&gt;" class="cls-1" d="M300.38,18.36C145.1,18.36,18.76,144.69,18.76,300S145.1,581.6,300.38,581.6,582,455.26,582,300,455.67,18.36,300.38,18.36ZM537,244.6,568.41,299,536,355.11Zm.07-7.73.61-67.88a269.35,269.35,0,0,1,33.75,127.39Zm-2.77-73.75L474,127.55,439.06,67.1A273.14,273.14,0,0,1,534.31,163.12ZM470,469.52,361.9,530.61H237.78l-106.94-63L68.78,360.08,69.9,236,132,128.46,240,67.37H364.15l106.93,63,62.06,107.5L532,362Zm62-99.52-.58,64.8-54.67,30.91ZM466.09,476.22l-31.4,54.4H369.88ZM355,534.54l-56.41,31.89-54.1-31.89ZM230,530.61H167.24l-32.4-56.13ZM124,463.53,68.14,430.62l.57-62.81ZM70,228l.59-64.8,54.67-30.91Zm65.86-106.22,31.4-54.4H232ZM247,63.44l56.41-31.9,54.11,31.9Zm124.91,3.93h62.81l32.4,56.13ZM478,134.45l55.83,32.91-.57,62.81Zm-45.23-71h-67.5L306.77,29A269.29,269.29,0,0,1,432.72,63.44ZM300.2,28.83,239,63.44H168A269.4,269.4,0,0,1,300.2,28.83ZM163.44,66.1,129.1,125.57,68.27,160A273.16,273.16,0,0,1,163.44,66.1Zm-96.8,96.7L66,234.89,29.27,298.49A269.38,269.38,0,0,1,66.64,162.8Zm-.72,80.07-1,110.52L33.51,299ZM300.38,571.13C150.87,571.13,29.23,449.49,29.23,300c0-.17,0-.35,0-.52l35.6,61.66-.65,71.73L128,470.44l37,64.1h71.74L298.51,571l64.43-36.43h73.21A269.39,269.39,0,0,1,300.38,571.13Zm137-37.28,35.47-61.43L533.62,438A273.12,273.12,0,0,1,437.36,533.84Zm97.93-98.7.65-72.05,35.55-61.58A269.36,269.36,0,0,1,535.29,435.14Z" transform="translate(-18.76 -18.36)"/></g></svg>