<svg id="Layer_1" data-name="Layer 1" xmlns="http://www.w3.org/2000/svg" viewBox="0 0 524.77 524.77"><defs><style>.cls-1{fill:#f8f9fa;}</style></defs><title>bordetitulo1blanco</title><g id="_Group_" data-name="&lt;Group&gt;"><path id="_Compound_Path_" data-name="&lt;Compound Path&gt;" class="cls-1" d="M37.51,37.23V171.37H48.42V86.84H81.67v84.53h5.45V86.84H507.58v84.53H513V86.84h36v84.53h13.27V37.23ZM81.67,81.39H48.42V48.14H81.67Zm425.9,0H87.13V48.14H507.58Zm41.43,0H513V48.14h36Z" transform="translate(-37.51 -37.23)"/><path id="_Compound_Path_2" data-name="&lt;Compound Path&gt;" class="cls-1" d="M551.38,399.47H549V512.39H513V399.47h-5.45V512.39H87.13V399.47H81.67V512.39H48.42V399.47H37.51V562H562.28V399.47h-10.9ZM81.67,551.09H48.42V517.84H81.67Zm425.9,0H87.13V517.84H507.58Zm41.43,0H513V517.84h36Z" transform="translate(-37.51 -37.23)"/></g></svg>