<svg id="Layer_1" data-name="Layer 1" xmlns="http://www.w3.org/2000/svg" viewBox="0 0 508.86 508.86"><defs><style>.cls-1{fill:#221c1d;}</style></defs><title>bordefondo3negro</title><g id="_Group_" data-name="&lt;Group&gt;"><path id="_Compound_Path_" data-name="&lt;Compound Path&gt;" class="cls-1" d="M544.54,45.46H46V554.32H554.86V45.46Zm0,498.54H56.32V55.78H544.54Z" transform="translate(-46 -45.46)"/><polygon id="_Path_" data-name="&lt;Path&gt;" class="cls-1" points="469.33 122.67 474.49 122.67 474.49 29.25 381.07 29.25 381.07 34.41 469.33 34.41 469.33 122.67"/><polygon id="_Path_2" data-name="&lt;Path&gt;" class="cls-1" points="39.53 34.41 127.79 34.41 127.79 29.25 34.37 29.25 34.37 122.67 39.53 122.67 39.53 34.41"/><polygon id="_Path_3" data-name="&lt;Path&gt;" class="cls-1" points="474.49 382.95 469.33 382.95 469.33 471.2 381.07 471.2 381.07 476.36 474.49 476.36 474.49 382.95"/><polygon id="_Path_4" data-name="&lt;Path&gt;" class="cls-1" points="127.79 471.2 39.53 471.2 39.53 382.95 34.37 382.95 34.37 476.36 127.79 476.36 127.79 471.2"/></g></svg>